<?xml version="1.0" encoding="UTF-8"?>
<svg version="1.1" xmlns="http://www.w3.org/2000/svg" width="296" height="171">
<path d="M0 0 C5.8303531 0.26203834 11.21794515 1.5187767 16.8359375 3.03125 C32.08039426 7.05402804 46.66790623 10.33805321 62.51953125 10.359375 C63.65628296 10.36155029 64.79303467 10.36372559 65.9642334 10.3659668 C71.56859099 10.34565033 77.15107137 10.21287999 82.74951172 9.95898438 C98.77377621 9.48392543 98.77377621 9.48392543 104.04663086 13.84667969 C106.8341319 16.58019777 109.25111186 19.58289793 111.70700073 22.6114502 C114.57453275 25.69088815 118.16978992 26.30151143 122.1875 26.75 C123.63940292 26.99431671 125.09122981 27.23908578 126.54296875 27.484375 C128.25419922 27.73960938 128.25419922 27.73960938 130 28 C130.66 28.33 131.32 28.66 132 29 C131.47910048 36.44654771 130.09981358 43.45409629 128.3125 50.69140625 C127.77243172 52.96004726 127.23340436 55.22893627 126.6953125 57.49804688 C125.85666224 61.00789051 125.01156255 64.51561736 124.14746094 68.01928711 C120.1103581 84.45890317 117.968851 100.05369204 118 117 C115.525 117.495 115.525 117.495 113 118 C112.01 122.62 111.02 127.24 110 132 C102.14154424 132 102.14154424 132 97.86499023 130.82250977 C96.90222672 130.56549286 95.9394632 130.30847595 94.94752502 130.04367065 C93.39375404 129.62179977 93.39375404 129.62179977 91.80859375 129.19140625 C64.36722197 122.11460229 38.72710783 117.71837679 10.375 117.6875 C9.68279736 117.68667042 8.99059471 117.68584084 8.27741623 117.68498611 C-0.15036662 117.68441601 -8.57484191 117.78753448 -17 118 C-17.83101637 113.19793311 -18.08379841 108.86030792 -18 104 C-19.65 103.67 -21.3 103.34 -23 103 C-22.58404606 98.00855273 -21.90095437 93.50517902 -20.48681641 88.69995117 C-18.52960471 80.99726457 -18.5400722 73.43477877 -18.5234375 65.55078125 C-18.50909505 64.00089691 -18.49333233 62.45102513 -18.47622681 60.90116882 C-18.43475739 56.86246202 -18.40949748 52.82383329 -18.38873291 48.78497314 C-18.35262054 42.28330269 -18.29204263 35.78182351 -18.23024368 29.28035545 C-18.21114519 27.01293875 -18.19943116 24.74557407 -18.18881226 22.47810364 C-18.1786098 21.10169352 -18.1682527 19.72528454 -18.15771484 18.34887695 C-18.15121918 17.14374954 -18.14472351 15.93862213 -18.13803101 14.69697571 C-18 12 -18 12 -17 11 C-14.64686445 10.92728259 -12.29166332 10.91629132 -9.9375 10.9375 C-8.64714844 10.94652344 -7.35679688 10.95554687 -6.02734375 10.96484375 C-5.02832031 10.97644531 -4.02929688 10.98804688 -3 11 C-2.86722656 10.28972656 -2.73445313 9.57945313 -2.59765625 8.84765625 C-2.42105469 7.92855469 -2.24445313 7.00945313 -2.0625 6.0625 C-1.80146484 4.68771484 -1.80146484 4.68771484 -1.53515625 3.28515625 C-1 1 -1 1 0 0 Z " fill="#202572" transform="translate(93,18)"/>
<path d="M0 0 C36.96 0 73.92 0 112 0 C112 3.63 112 7.26 112 11 C62.5 11.495 62.5 11.495 12 12 C11.67 37.74 11.34 63.48 11 90 C46.64 90 82.28 90 119 90 C119 66.24 119 42.48 119 18 C122.96 18 126.92 18 131 18 C131 45.39 131 72.78 131 101 C87.77 101 44.54 101 0 101 C0 67.67 0 34.34 0 0 Z " fill="#FAFBFD" transform="translate(78,32)"/>
<path d="M0 0 C32.67 0 65.34 0 99 0 C99 1.32 99 2.64 99 4 C100.32 4 101.64 4 103 4 C103 25.12 103 46.24 103 68 C100.18207901 65.18207901 98.64362313 62.89321707 96.69921875 59.4609375 C96.05791016 58.33397461 95.41660156 57.20701172 94.75585938 56.04589844 C94.06625946 54.82234834 93.37680961 53.59871366 92.6875 52.375 C91.97887332 51.12512266 91.26988483 49.87545037 90.56054688 48.62597656 C88.36573764 44.75512105 86.18141139 40.87841843 84 37 C83.64762268 36.37363647 83.29524536 35.74727295 82.93218994 35.10192871 C78.60621506 27.40979913 74.29587687 19.70898358 70 12 C66.00003714 13.33332095 65.16217663 15.4957827 63 19 C59 14.25 59 14.25 59 12 C58.195625 11.690625 57.39125 11.38125 56.5625 11.0625 C54 10 54 10 53 9 C47.66495711 8.373401 43.39759692 7.95180231 39 11.25 C38.34 12.1575 37.68 13.065 37 14 C36.401875 14.598125 35.80375 15.19625 35.1875 15.8125 C33.36768685 19.16478738 33.38390378 22.33080476 34 26 C35.35792744 29.67954533 37.23774431 32.38195485 40.3125 34.875 C43.53342302 36.22329336 46.53631552 36.66042309 50 37 C48.90073597 38.77388086 47.79539498 40.54399684 46.6875 42.3125 C46.07261719 43.29863281 45.45773438 44.28476563 44.82421875 45.30078125 C43.33675339 47.50172035 41.9596614 49.23328988 40 51 C27 33.4516129 27 33.4516129 27 30 C26.01 30 25.02 30 24 30 C23.60941406 31.04994141 23.60941406 31.04994141 23.2109375 32.12109375 C20.72594095 38.02897265 17.24028614 43.47897674 14 49 C13.49984375 49.85400391 12.9996875 50.70800781 12.484375 51.58789062 C10.87171848 54.33371234 9.2499116 57.07391516 7.625 59.8125 C7.10115723 60.70267822 6.57731445 61.59285645 6.03759766 62.51000977 C5.54308105 63.33815186 5.04856445 64.16629395 4.5390625 65.01953125 C4.09771973 65.76307861 3.65637695 66.50662598 3.20166016 67.27270508 C2 69 2 69 0 70 C0 46.9 0 23.8 0 0 Z " fill="#5A9DFB" transform="translate(91,46)"/>
<path d="M0 0 C5.8303531 0.26203834 11.21794515 1.5187767 16.8359375 3.03125 C32.08039426 7.05402804 46.66790623 10.33805321 62.51953125 10.359375 C63.65628296 10.36155029 64.79303467 10.36372559 65.9642334 10.3659668 C71.56859099 10.34565033 77.15107137 10.21287999 82.74951172 9.95898438 C98.77377621 9.48392543 98.77377621 9.48392543 104.04663086 13.84667969 C106.8341319 16.58019777 109.25111186 19.58289793 111.70700073 22.6114502 C114.57453275 25.69088815 118.16978992 26.30151143 122.1875 26.75 C123.63940292 26.99431671 125.09122981 27.23908578 126.54296875 27.484375 C128.25419922 27.73960938 128.25419922 27.73960938 130 28 C130.66 28.33 131.32 28.66 132 29 C131.47910048 36.44654771 130.09981358 43.45409629 128.3125 50.69140625 C127.77243172 52.96004726 127.23340436 55.22893627 126.6953125 57.49804688 C125.85666224 61.00789051 125.01156255 64.51561736 124.14746094 68.01928711 C120.1103581 84.45890317 117.968851 100.05369204 118 117 C115.525 117.495 115.525 117.495 113 118 C112.01 122.62 111.02 127.24 110 132 C102.14154424 132 102.14154424 132 97.86499023 130.82250977 C96.90222672 130.56549286 95.9394632 130.30847595 94.94752502 130.04367065 C93.39375404 129.62179977 93.39375404 129.62179977 91.80859375 129.19140625 C64.36722197 122.11460229 38.72710783 117.71837679 10.375 117.6875 C9.68279736 117.68667042 8.99059471 117.68584084 8.27741623 117.68498611 C-0.15036662 117.68441601 -8.57484191 117.78753448 -17 118 C-17.83101637 113.19793311 -18.08379841 108.86030792 -18 104 C-19.65 103.67 -21.3 103.34 -23 103 C-22.58404606 98.00855273 -21.90095437 93.50517902 -20.48681641 88.69995117 C-18.52960471 80.99726457 -18.5400722 73.43477877 -18.5234375 65.55078125 C-18.50909505 64.00089691 -18.49333233 62.45102513 -18.47622681 60.90116882 C-18.43475739 56.86246202 -18.40949748 52.82383329 -18.38873291 48.78497314 C-18.35262054 42.28330269 -18.29204263 35.78182351 -18.23024368 29.28035545 C-18.21114519 27.01293875 -18.19943116 24.74557407 -18.18881226 22.47810364 C-18.1786098 21.10169352 -18.1682527 19.72528454 -18.15771484 18.34887695 C-18.15121918 17.14374954 -18.14472351 15.93862213 -18.13803101 14.69697571 C-18 12 -18 12 -17 11 C-14.64686445 10.92728259 -12.29166332 10.91629132 -9.9375 10.9375 C-8.64714844 10.94652344 -7.35679688 10.95554687 -6.02734375 10.96484375 C-5.02832031 10.97644531 -4.02929688 10.98804688 -3 11 C-2.86722656 10.28972656 -2.73445313 9.57945313 -2.59765625 8.84765625 C-2.42105469 7.92855469 -2.24445313 7.00945313 -2.0625 6.0625 C-1.80146484 4.68771484 -1.80146484 4.68771484 -1.53515625 3.28515625 C-1 1 -1 1 0 0 Z M98 13 C98 17.29 98 21.58 98 26 C97.505 25.505 97.505 25.505 97 25 C97 21.37 97 17.74 97 14 C60.04 14 23.08 14 -15 14 C-15 47.33 -15 80.66 -15 115 C28.23 115 71.46 115 116 115 C116 87.61 116 60.22 116 32 C108.75303584 31.45384301 108.75303584 31.45384301 102 33 C101.67 53.79 101.34 74.58 101 96 C101 74.88 101 53.76 101 32 C99.68 32 98.36 32 97 32 C97.99 30.515 97.99 30.515 99 29 C99.29991069 26.41114829 99.50865225 23.90850918 99.625 21.3125 C99.66367188 20.61060547 99.70234375 19.90871094 99.7421875 19.18554688 C99.8362334 17.45745345 99.9191968 15.72876325 100 14 C99.01 13.505 99.01 13.505 98 13 Z " fill="#2B2F66" transform="translate(93,18)"/>
<path d="M0 0 C0.66 0 1.32 0 2 0 C2.38631592 0.69746338 2.77263184 1.39492676 3.1706543 2.11352539 C11.15364301 16.52015038 19.17353543 30.90402897 27.29296875 45.234375 C27.75493652 46.05099609 28.2169043 46.86761719 28.69287109 47.70898438 C29.53485282 49.18473269 30.38606641 50.6552711 31.24853516 52.11914062 C34 56.80012593 34 56.80012593 34 59 C26.44182619 60.32217189 18.3981034 61.50862501 11 59 C5.31233292 54.14399731 2.2495678 47.14990308 -0.82177734 40.46386719 C-2.28561265 37.40273459 -4.0228481 34.7504174 -6 32 C-9.25754007 33.36651045 -10.68716338 34.61522638 -12.5 37.625 C-13.01304687 38.41003906 -13.52609375 39.19507813 -14.0546875 40.00390625 C-15.12943455 41.65918936 -16.19978266 43.31745325 -17.25097656 44.98779297 C-25.77219923 58.33570113 -25.77219923 58.33570113 -31.4453125 60.02734375 C-34.46030165 60.00239703 -37.0834441 59.74465257 -40 59 C-38.37870536 53.92723764 -35.32621071 50.0930284 -32.1875 45.875 C-27.48895052 39.470035 -22.89987474 33.00925025 -18.4375 26.4375 C-14.08398249 20.04753169 -9.72833529 13.65963456 -5.3125 7.3125 C-4.80710693 6.57507568 -4.30171387 5.83765137 -3.78100586 5.07788086 C-2.57153245 3.34854425 -1.29235238 1.66830943 0 0 Z " fill="#B98C6D" transform="translate(159,61)"/>
<path d="M0 0 C5.83033949 0.26203773 11.21796718 1.51872415 16.8359375 3.03125 C39.14075119 8.9191549 59.82105859 10.99870095 82.92529297 10.13476562 C99.79613929 9.7130998 99.79613929 9.7130998 105.49101257 14.73330688 C109.18161297 18.59538047 111.15175546 21.74653511 112 27 C113.96509909 29.7700997 113.96509909 29.7700997 116 32 C112.04 32 108.08 32 104 32 C104 55.76 104 79.52 104 104 C103.67 104 103.34 104 103 104 C102.67 102.02 102.34 100.04 102 98 C101.01 98.495 101.01 98.495 100 99 C100.33 76.89 100.66 54.78 101 32 C99.68 32 98.36 32 97 32 C97.165 31.38125 97.33 30.7625 97.5 30.125 C98.07634644 28.03936614 98.07634644 28.03936614 98 26 C64.67 26 31.34 26 -3 26 C-3 25.67 -3 25.34 -3 25 C30 25 63 25 97 25 C97 21.37 97 17.74 97 14 C60.04 14 23.08 14 -15 14 C-15 46.34 -15 78.68 -15 112 C-15.99 112 -16.98 112 -18 112 C-18 109.36 -18 106.72 -18 104 C-19.65 103.67 -21.3 103.34 -23 103 C-22.58404606 98.00855273 -21.90095437 93.50517902 -20.48681641 88.69995117 C-18.52960471 80.99726457 -18.5400722 73.43477877 -18.5234375 65.55078125 C-18.50909505 64.00089691 -18.49333233 62.45102513 -18.47622681 60.90116882 C-18.43475739 56.86246202 -18.40949748 52.82383329 -18.38873291 48.78497314 C-18.35262054 42.28330269 -18.29204263 35.78182351 -18.23024368 29.28035545 C-18.21114519 27.01293875 -18.19943116 24.74557407 -18.18881226 22.47810364 C-18.1786098 21.10169352 -18.1682527 19.72528454 -18.15771484 18.34887695 C-18.15121918 17.14374954 -18.14472351 15.93862213 -18.13803101 14.69697571 C-18 12 -18 12 -17 11 C-14.64686445 10.92728259 -12.29166332 10.91629132 -9.9375 10.9375 C-8.64714844 10.94652344 -7.35679688 10.95554687 -6.02734375 10.96484375 C-5.02832031 10.97644531 -4.02929688 10.98804688 -3 11 C-2.86722656 10.28972656 -2.73445313 9.57945313 -2.59765625 8.84765625 C-2.42105469 7.92855469 -2.24445313 7.00945313 -2.0625 6.0625 C-1.80146484 4.68771484 -1.80146484 4.68771484 -1.53515625 3.28515625 C-1 1 -1 1 0 0 Z " fill="#7A7EB0" transform="translate(93,18)"/>
<path d="M0 0 C4.02951393 3.7432252 6.92492169 7.64721125 9.8125 12.3125 C10.42254883 13.28026367 10.42254883 13.28026367 11.04492188 14.26757812 C12.0358257 15.84136655 13.01875372 17.42017212 14 19 C12.34147813 21.65161856 10.66631858 24.28256506 8.93359375 26.88671875 C6.95100522 29.88762686 6.95100522 29.88762686 5.78515625 32.95703125 C4.1697381 36.38918105 3.22080663 37.91334261 0 40 C-7.57008754 41.25855053 -15.38741662 40.60395206 -23 40 C-21.56538745 36.15383015 -19.78337109 32.6953314 -17.734375 29.140625 C-17.09113281 28.02429688 -16.44789062 26.90796875 -15.78515625 25.7578125 C-15.45016113 25.18063477 -15.11516602 24.60345703 -14.77001953 24.00878906 C-13.76253237 22.27160918 -12.76207841 20.53035653 -11.76171875 18.7890625 C-8.05142749 12.37166013 -4.2187938 6.09645414 0 0 Z " fill="#B98D6C" transform="translate(116,80)"/>
<path d="M0 0 C4.41171628 2.12707749 7.10792504 4.43676039 9 9 C8.72339949 14.0412674 5.91173599 17.35150904 3 21.25 C2.5359375 21.88679688 2.071875 22.52359375 1.59375 23.1796875 C-1.75496032 27.75496032 -1.75496032 27.75496032 -3 29 C-7.31092881 29.51731146 -10.15992991 29.25819546 -13.75 26.875 C-18.22268071 23.28680447 -19.739767 19.79271622 -20.5625 14.125 C-20.38604358 9.02737022 -17.43106991 5.55629144 -14 2 C-9.52981291 -0.98012473 -5.24104518 -0.60733142 0 0 Z " fill="#FDC308" transform="translate(144,54)"/>
<path d="M0 0 C0.66 0 1.32 0 2 0 C4.16478459 3.80288714 6.31904503 7.6114788 8.46362305 11.42578125 C9.19510947 12.72331237 9.92947946 14.01922217 10.66674805 15.31347656 C11.72421056 17.17096955 12.77126522 19.03399065 13.81640625 20.8984375 C14.45006104 22.01911621 15.08371582 23.13979492 15.73657227 24.29443359 C16.15350342 25.18727051 16.57043457 26.08010742 17 27 C16.67 27.66 16.34 28.32 16 29 C15.37351563 28.36191406 14.74703125 27.72382812 14.1015625 27.06640625 C13.28429687 26.24011719 12.46703125 25.41382812 11.625 24.5625 C10.81289062 23.73878906 10.00078125 22.91507813 9.1640625 22.06640625 C7.17651485 19.96565328 7.17651485 19.96565328 5 19 C4.67 22.96 4.34 26.92 4 31 C0.26930717 30.25386143 -2.57404607 29.46826597 -6 28 C-6.48210937 28.433125 -6.96421875 28.86625 -7.4609375 29.3125 C-8.09257812 29.869375 -8.72421875 30.42625 -9.375 31 C-10.31472656 31.8353125 -10.31472656 31.8353125 -11.2734375 32.6875 C-13 34 -13 34 -15 34 C-16.86103397 31.58754855 -18.02586405 29.95007265 -17.94140625 26.84765625 C-16.52054631 22.54970231 -13.9125604 19.25115369 -11.25 15.625 C-10.7240625 14.89539063 -10.198125 14.16578125 -9.65625 13.4140625 C-8.61390595 11.96922917 -7.5664637 10.52805859 -6.51367188 9.09082031 C-5.51218774 7.70747997 -4.52865904 6.3109444 -3.56445312 4.90136719 C-2.42229948 3.23509751 -1.21684459 1.61253181 0 0 Z " fill="#F9F9F9" transform="translate(159,61)"/>
<path d="M0 0 C5.87529802 1.1547562 9.67424218 5.21912338 13 10 C15.48673375 14.15638184 17.82473404 18.39714196 20.1875 22.625 C20.84814215 23.79436414 21.50894782 24.96363593 22.16992188 26.1328125 C22.78802734 27.23625 23.40613281 28.3396875 24.04296875 29.4765625 C24.61039795 30.48799316 25.17782715 31.49942383 25.76245117 32.54150391 C27 35 27 35 27 37 C19.41 37 11.82 37 4 37 C3.01 35.02 2.02 33.04 1 31 C1.66 30.67 2.32 30.34 3 30 C3.433125 31.2065625 3.433125 31.2065625 3.875 32.4375 C4.73262568 35.1326468 4.73262568 35.1326468 7 36 C6.823479 35.22922119 6.64695801 34.45844238 6.46508789 33.66430664 C5.65908591 30.13152124 4.86074129 26.59704668 4.0625 23.0625 C3.78470703 21.85013672 3.50691406 20.63777344 3.22070312 19.38867188 C1.7658642 12.92077354 0.56308976 6.60739499 0 0 Z " fill="#947277" transform="translate(166,83)"/>
<path d="M0 0 C0.99 0.99 0.99 0.99 2 2 C1.67 6.62 1.34 11.24 1 16 C-32.33 15.67 -65.66 15.34 -100 15 C-99.9604234 38.18604678 -99.9604234 38.18604678 -99.90991211 61.37207031 C-99.90539551 65.86083984 -99.90539551 65.86083984 -99.90455627 67.96356201 C-99.90302271 69.42922265 -99.89950984 70.89488205 -99.89442444 72.36053467 C-99.88709943 74.58315212 -99.8860942 76.80569259 -99.88647461 79.02832031 C-99.884254 80.28074524 -99.88203339 81.53317017 -99.87974548 82.82354736 C-100 86 -100 86 -101 90 C-66.02 90 -31.04 90 5 90 C5 90.33 5 90.66 5 91 C-30.31 91 -65.62 91 -102 91 C-102 65.26 -102 39.52 -102 13 C-68.34 13 -34.68 13 0 13 C0 8.71 0 4.42 0 0 Z " fill="#101A6C" transform="translate(191,31)"/>
<path d="M0 0 C0.66 0 1.32 0 2 0 C3.296875 1.66479492 3.296875 1.66479492 4.75 3.98046875 C5.2759375 4.81513672 5.801875 5.64980469 6.34375 6.50976562 C6.8903125 7.39341797 7.436875 8.27707031 8 9.1875 C8.5465625 10.05181641 9.093125 10.91613281 9.65625 11.80664062 C12.19686211 15.8697519 14.20427237 19.51068092 16 24 C5.11 24 -5.78 24 -17 24 C-8.80840655 11.12749601 -8.80840655 11.12749601 -4.6875 5.8125 C-4.25888672 5.24208984 -3.83027344 4.67167969 -3.38867188 4.08398438 C-2.30989213 2.6820756 -1.16078686 1.33479879 0 0 Z " fill="#BB8C6B" transform="translate(151,96)"/>
<path d="M0 0 C18.81 0 37.62 0 57 0 C55.875 9 55.875 9 55 12 C48.9195143 12.28244971 43.49576625 11.22208686 37.578125 9.8828125 C36.59632263 9.6655954 35.61452026 9.4483783 34.60296631 9.22457886 C32.53805427 8.76579396 30.47395611 8.30333221 28.41064453 7.83740234 C25.24863927 7.1246933 22.08361556 6.42680309 18.91796875 5.73046875 C16.90865773 5.28212945 14.89953614 4.83294017 12.890625 4.3828125 C11.47030975 4.07018967 11.47030975 4.07018967 10.02130127 3.75125122 C9.14318787 3.55119476 8.26507446 3.35113831 7.36035156 3.14501953 C6.58870667 2.97181183 5.81706177 2.79860413 5.02203369 2.62014771 C3 2 3 2 0 0 Z " fill="#D2D4ED" transform="translate(146,135)"/>
<path d="M0 0 C4.02951393 3.7432252 6.92492169 7.64721125 9.8125 12.3125 C10.42254883 13.28026367 10.42254883 13.28026367 11.04492188 14.26757812 C12.0358257 15.84136655 13.01875372 17.42017212 14 19 C9.3046875 23.859375 9.3046875 23.859375 6.5625 25.125 C2.5523483 24.92938284 0.85986048 22.72684371 -2 20 C-3.65 20.99 -5.3 21.98 -7 23 C-8.625 20.8125 -8.625 20.8125 -10 18 C-8.73711064 13.67009362 -6.26441755 9.97426245 -3.875 6.1875 C-3.50246094 5.59001953 -3.12992187 4.99253906 -2.74609375 4.37695312 C-1.8342952 2.91573749 -0.91764024 1.45755415 0 0 Z " fill="#F9F7F8" transform="translate(116,80)"/>
<path d="M0 0 C10 1 10 1 12 3 C11.86759949 4.83258057 11.86759949 4.83258057 11.32495117 7.07910156 C11.12782028 7.92047668 10.93068939 8.76185181 10.72758484 9.62872314 C10.38869987 10.99586456 10.38869987 10.99586456 10.04296875 12.390625 C9.82055008 13.327995 9.59813141 14.26536499 9.36897278 15.23114014 C8.65273752 18.24016308 7.92061936 21.24505053 7.1875 24.25 C6.46840499 27.24137751 5.75256355 30.23351152 5.03816223 33.22601318 C4.59198939 35.09000468 4.14249377 36.95320479 3.68925476 38.81549072 C2.62971856 43.19536498 1.66146222 47.53776215 1 52 C0.67 52 0.34 52 0 52 C0 34.84 0 17.68 0 0 Z " fill="#E3E4FC" transform="translate(211,47)"/>
<path d="M0 0 C12.75 10.625 12.75 10.625 17 17 C13.04 17 9.08 17 5 17 C5 40.76 5 64.52 5 89 C4.67 89 4.34 89 4 89 C3.505 86.03 3.505 86.03 3 83 C2.01 83.495 2.01 83.495 1 84 C1.33 61.89 1.66 39.78 2 17 C0.68 17 -0.64 17 -2 17 C-1.76990234 16.21882813 -1.76990234 16.21882813 -1.53515625 15.421875 C-0.86017489 12.36721485 -0.65588882 9.36984029 -0.4375 6.25 C-0.35371094 5.07953125 -0.26992187 3.9090625 -0.18359375 2.703125 C-0.12300781 1.81109375 -0.06242188 0.9190625 0 0 Z " fill="#525C9E" transform="translate(192,33)"/>
<path d="M0 0 C0.66 0.33 1.32 0.66 2 1 C2 1.99 2 2.98 2 4 C2.83049866 3.99333817 3.66099731 3.98667633 4.5166626 3.97981262 C12.34437398 3.91969467 20.1720078 3.87402215 27.999897 3.84456348 C32.02428284 3.82890931 36.04847788 3.8076758 40.07275391 3.77368164 C43.95662053 3.74107897 47.84030366 3.72314512 51.72429657 3.71536827 C53.20587808 3.70982636 54.68744958 3.69900428 56.16895294 3.68280983 C58.24469178 3.66102271 60.31967298 3.65803349 62.39550781 3.65942383 C63.57687317 3.65276199 64.75823853 3.64610016 65.97540283 3.63923645 C69.29845341 4.0355985 70.53842661 4.82200945 73 7 C75.08695779 7.70685233 75.08695779 7.70685233 77.29296875 8.0625 C78.08767578 8.21976563 78.88238281 8.37703125 79.70117188 8.5390625 C81.37005465 8.84845475 83.03933331 9.15571856 84.70898438 9.4609375 C85.49982422 9.61820313 86.29066406 9.77546875 87.10546875 9.9375 C87.82887451 10.07027344 88.55228027 10.20304688 89.29760742 10.33984375 C89.85939697 10.55769531 90.42118652 10.77554688 91 11 C91.495 12.485 91.495 12.485 92 14 C86.10350895 13.12130722 80.35829252 12.10179318 74.60958862 10.50543213 C60.68897907 6.85588697 46.30826042 7.32360041 32.02319336 7.26177979 C28.40203804 7.2419229 24.78113715 7.19998997 21.16015625 7.16015625 C14.10686939 7.08569679 7.05360316 7.03490212 0 7 C-1.125 2.25 -1.125 2.25 0 0 Z " fill="#4E5388" transform="translate(76,129)"/>
<path d="M0 0 C4.41171628 2.12707749 7.10792504 4.43676039 9 9 C8.72339949 14.0412674 5.91173599 17.35150904 3 21.25 C2.5359375 21.88679688 2.071875 22.52359375 1.59375 23.1796875 C-1.75496032 27.75496032 -1.75496032 27.75496032 -3 29 C-7.31092881 29.51731146 -10.15992991 29.25819546 -13.75 26.875 C-18.22268071 23.28680447 -19.739767 19.79271622 -20.5625 14.125 C-20.38604358 9.02737022 -17.43106991 5.55629144 -14 2 C-9.52981291 -0.98012473 -5.24104518 -0.60733142 0 0 Z M-8 1 C-8 1.66 -8 2.32 -8 3 C-8.66 3 -9.32 3 -10 3 C-10.226875 3.61875 -10.45375 4.2375 -10.6875 4.875 C-12 7 -12 7 -17 9 C-17 12.96 -17 16.92 -17 21 C-16.34 21 -15.68 21 -15 21 C-14.566875 22.2065625 -14.566875 22.2065625 -14.125 23.4375 C-13.26737432 26.1326468 -13.26737432 26.1326468 -11 27 C-9.62657169 27.0689472 -8.24997898 27.08467708 -6.875 27.0625 C-5.59625 27.041875 -4.3175 27.02125 -3 27 C-3 26.34 -3 25.68 -3 25 C-2.34 25 -1.68 25 -1 25 C-1 23.35 -1 21.7 -1 20 C-0.34 20 0.32 20 1 20 C1 19.34 1 18.68 1 18 C1.99 17.67 2.98 17.34 4 17 C3.67 16.34 3.34 15.68 3 15 C-0.02934491 14.34227572 -0.02934491 14.34227572 -3 14 C-3 13.34 -3 12.68 -3 12 C-2.01 12 -1.02 12 0 12 C1.81301758 7.56906802 1.81301758 7.56906802 1 3 C-0.65 3 -2.3 3 -4 3 C-4 2.34 -4 1.68 -4 1 C-5.32 1 -6.64 1 -8 1 Z " fill="#FBC40F" transform="translate(144,54)"/>
<path d="M0 0 C0.33 0 0.66 0 1 0 C1.33 19.8 1.66 39.6 2 60 C2.33 60 2.66 60 3 60 C3 73.2 3 86.4 3 100 C2.01 100 1.02 100 0 100 C0 97.36 0 94.72 0 92 C-1.65 91.67 -3.3 91.34 -5 91 C-4.58416836 86.01002036 -3.90164179 81.50628808 -2.48901367 76.70214844 C-0.52961984 68.99065775 -0.52099833 61.41000856 -0.48828125 53.515625 C-0.47139513 51.9633445 -0.45323975 50.41107735 -0.43388367 48.85882568 C-0.3868036 44.81482111 -0.35672482 40.77087064 -0.33044434 36.72668457 C-0.30042429 32.58330603 -0.25396891 28.44011331 -0.20898438 24.296875 C-0.12343045 16.1980089 -0.05587489 8.09912504 0 0 Z " fill="#7077B2" transform="translate(75,30)"/>
<path d="M0 0 C0.33 0 0.66 0 1 0 C1.10957031 0.66386719 1.21914062 1.32773438 1.33203125 2.01171875 C2.80604138 10.42909593 2.80604138 10.42909593 8.25 16.75 C11.50126334 18.22784697 14.46038729 18.65297915 18 19 C16.90073597 20.77388086 15.79539498 22.54399684 14.6875 24.3125 C14.07261719 25.29863281 13.45773438 26.28476563 12.82421875 27.30078125 C11.33675339 29.50172035 9.9596614 31.23328988 8 33 C-5 15.4516129 -5 15.4516129 -5 12 C-5.99 12 -6.98 12 -8 12 C-8 12.66 -8 13.32 -8 14 C-8.66 14 -9.32 14 -10 14 C-9.67 13.01 -9.34 12.02 -9 11 C-5.71303767 10.20046862 -4.28976808 9.90341064 -1 11 C-0.67 7.37 -0.34 3.74 0 0 Z " fill="#5A9CF9" transform="translate(123,64)"/>
<path d="M0 0 C2.54242904 0.62201946 5.08391875 1.24751759 7.625 1.875 C8.33785156 2.04902344 9.05070313 2.22304688 9.78515625 2.40234375 C13.92796216 3.42854338 17.96726678 4.58790729 22 6 C21.45650355 13.71113817 20.02450461 21.04934619 18.27734375 28.5703125 C18.01240616 29.73255341 17.74746857 30.89479431 17.47450256 32.09225464 C16.63451692 35.7711642 15.7861496 39.44808046 14.9375 43.125 C14.36337551 45.63268509 13.78980219 48.14049644 13.21679688 50.6484375 C11.81756913 56.76709965 10.41147149 62.88415135 9 69 C7 67 7 67 6.734375 64.5390625 C6.73953125 63.57742187 6.7446875 62.61578125 6.75 61.625 C6.74484375 60.66851562 6.7396875 59.71203125 6.734375 58.7265625 C7 56 7 56 7.89941406 54.29907227 C9.40617258 51.15152459 10.10360175 47.87219762 10.875 44.48828125 C11.04499512 43.76062057 11.21499023 43.0329599 11.39013672 42.2832489 C11.93148247 39.96073456 12.46578698 37.63666415 13 35.3125 C13.35892294 33.76877503 13.71829353 32.22515407 14.078125 30.68164062 C15.7575312 23.46304336 17.41150943 16.23921485 19 9 C15.9393643 7.51605542 13.94418734 7 10.5 7 C7.01672877 7 5.06369793 6.57561608 2 5 C1.34 4.34 0.68 3.68 0 3 C0 2.01 0 1.02 0 0 Z " fill="#3E4180" transform="translate(203,41)"/>
<path d="M0 0 C0.99 0 1.98 0 3 0 C3 0.99 3 1.98 3 3 C16.53 3 30.06 3 44 3 C44 3.33 44 3.66 44 4 C25.52 4 7.04 4 -12 4 C-11.97679688 8.21265625 -11.95359375 12.4253125 -11.9296875 16.765625 C-11.91682335 20.12700787 -11.90597853 23.48838376 -11.89649963 26.84977722 C-11.88594337 30.39680937 -11.8718391 33.94374577 -11.84912109 37.49072266 C-11.82321149 41.56153281 -11.81352262 45.63224172 -11.8046875 49.703125 C-11.78920364 51.60798676 -11.78920364 51.60798676 -11.77340698 53.55133057 C-11.77325592 54.73225281 -11.77310486 55.91317505 -11.77294922 57.12988281 C-11.768508 58.16912903 -11.76406677 59.20837524 -11.75949097 60.27911377 C-12 63 -12 63 -14 67 C-14 45.55 -14 24.1 -14 2 C-9.38 2 -4.76 2 0 2 C0 1.34 0 0.68 0 0 Z " fill="#0A1767" transform="translate(90,27)"/>
<path d="M0 0 C1.32 0.66 2.64 1.32 4 2 C4 30.71 4 59.42 4 89 C2.35 89 0.7 89 -1 89 C0.485 88.505 0.485 88.505 2 88 C2 59.95 2 31.9 2 3 C-3.28 3 -8.56 3 -14 3 C-14 2.67 -14 2.34 -14 2 C-9.38 2 -4.76 2 0 2 C0 1.34 0 0.68 0 0 Z " fill="#0E1350" transform="translate(207,46)"/>
<path d="M0 0 C3.91520443 1.30506814 4.21526123 2.68186229 6.15234375 6.265625 C7.06161621 7.92815308 7.06161621 7.92815308 7.98925781 9.62426758 C8.63873502 10.83281112 9.28814771 12.04138933 9.9375 13.25 C10.94280842 15.09666242 11.95145103 16.94147716 12.96029663 18.78620911 C13.64269625 20.03447844 14.32402509 21.28333372 15.00430298 22.53276062 C18.64203307 29.20640932 22.42744465 35.7933262 26.23022461 42.37402344 C28.62151194 46.52755703 30.91497356 50.68399526 33 55 C32.01 55.33 31.02 55.66 30 56 C29.65855957 55.36199463 29.31711914 54.72398926 28.96533203 54.06665039 C22.21041038 41.46538366 15.33300783 28.9782486 8.00878906 16.69921875 C6.60501739 14.33468563 5.23030977 11.95511389 3.875 9.5625 C3.50117188 8.90378906 3.12734375 8.24507812 2.7421875 7.56640625 C2 6 2 6 2 4 C-0.33524782 6.25740623 -2.18705073 8.2805761 -4 11 C-4.66 11 -5.32 11 -6 11 C-5.39305845 7.84669446 -4.3583335 5.81111133 -2.4375 3.25 C-1.98246094 2.63640625 -1.52742187 2.0228125 -1.05859375 1.390625 C-0.70925781 0.93171875 -0.35992187 0.4728125 0 0 Z " fill="#223282" transform="translate(159,57)"/>
<path d="M0 0 C0.99 0 1.98 0 3 0 C4.71875 2.23046875 4.71875 2.23046875 6.5 5.1875 C7.38171875 6.63189453 7.38171875 6.63189453 8.28125 8.10546875 C8.8484375 9.06066406 9.415625 10.01585938 10 11 C10.5671875 11.94488281 11.134375 12.88976562 11.71875 13.86328125 C12.1415625 14.56839844 12.564375 15.27351563 13 16 C12.01 16.33 11.02 16.66 10 17 C7.36 13.04 4.72 9.08 2 5 C-1.04054029 8.80067537 -3.58585178 12.44917587 -6.00390625 16.62109375 C-6.3684642 17.24347427 -6.73302216 17.8658548 -7.10862732 18.50709534 C-7.87435711 19.81620789 -8.63816842 21.12644432 -9.40014648 22.43774414 C-10.55847259 24.43057109 -11.72304638 26.41963866 -12.88867188 28.40820312 C-13.63578759 29.68728341 -14.38254438 30.96657344 -15.12890625 32.24609375 C-15.64463951 33.12762367 -15.64463951 33.12762367 -16.17079163 34.02696228 C-18.25585176 37.62090994 -20.17784933 41.26623541 -22 45 C-22.99 45 -23.98 45 -25 45 C-24.46287817 40.32439849 -22.34745204 37.02866541 -19.8125 33.1875 C-16.50591921 28.07289344 -13.34287958 22.90635583 -10.328125 17.61328125 C-9.70446045 16.52055908 -9.0807959 15.42783691 -8.43823242 14.30200195 C-7.19534003 12.11403897 -5.96100144 9.92119309 -4.7355957 7.72338867 C-3.87840942 6.22062378 -3.87840942 6.22062378 -3.00390625 4.6875 C-2.49674072 3.78386719 -1.9895752 2.88023438 -1.46704102 1.94921875 C-0.98291748 1.30597656 -0.49879395 0.66273437 0 0 Z " fill="#242F7A" transform="translate(115,76)"/>
<path d="M0 0 C8.0107172 0.68862531 15.71803223 2.33310583 23.5625 4.0625 C24.87035198 4.347422 26.17829415 4.63193031 27.48632812 4.91601562 C30.6584601 5.60662738 33.8296221 6.30138811 37 7 C37 7.33 37 7.66 37 8 C24.46 8 11.92 8 -1 8 C-0.67 5.36 -0.34 2.72 0 0 Z " fill="#EAEBF4" transform="translate(94,21)"/>
<path d="M0 0 C4.13396895 1.50834002 5.49247535 3.94405275 7.671875 7.6640625 C8.66767578 9.34628906 8.66767578 9.34628906 9.68359375 11.0625 C10.37262162 12.249869 11.06142083 13.43737073 11.75 14.625 C12.4534741 15.8208736 13.15789106 17.0161931 13.86328125 18.2109375 C15.58488274 21.13530168 17.29662137 24.06499629 19 27 C18.01 27.33 17.02 27.66 16 28 C15.68248779 27.47567383 15.36497559 26.95134766 15.0378418 26.41113281 C13.58988055 24.02277579 12.13872394 21.63637581 10.6875 19.25 C10.18798828 18.425 9.68847656 17.6 9.17382812 16.75 C8.44389648 15.55117187 8.44389648 15.55117187 7.69921875 14.328125 C7.25408936 13.5949707 6.80895996 12.86181641 6.3503418 12.10644531 C5.01154149 9.94780295 5.01154149 9.94780295 3.33129883 7.85449219 C2 6 2 6 2 4 C-3.35135001 8.92124151 -7.19372 14.77398454 -11.27148438 20.7578125 C-11.82255859 21.54414062 -12.37363281 22.33046875 -12.94140625 23.140625 C-13.43326416 23.85766602 -13.92512207 24.57470703 -14.43188477 25.31347656 C-16.24139755 27.25962545 -17.406866 27.62900229 -20 28 C-13.97548265 18.15930928 -7.23464824 8.98206892 0 0 Z " fill="#362C65" transform="translate(151,92)"/>
<path d="M0 0 C6.77593649 -0.28079435 13.55035617 -0.47229525 20.33081055 -0.60424805 C22.63281295 -0.65929207 24.93443559 -0.73415728 27.23510742 -0.82983398 C48.45413322 -1.68962983 48.45413322 -1.68962983 54.65299988 3.98417664 C56.66173127 6.18735217 58.39676455 8.48871918 60 11 C59.34 11.99 58.68 12.98 58 14 C56.51780033 12.54474941 55.03932861 11.085701 53.5625 9.625 C52.73878906 8.81289063 51.91507813 8.00078125 51.06640625 7.1640625 C49 5 49 5 48 3 C32.16 2.67 16.32 2.34 0 2 C0 1.34 0 0.68 0 0 Z " fill="#2E3264" transform="translate(144,29)"/>
<path d="M0 0 C4 4.75 4 4.75 4 7 C4.94875 6.360625 5.8975 5.72125 6.875 5.0625 C10 3 10 3 12 2 C12.99 2.33 13.98 2.66 15 3 C14.67 3.99 14.34 4.98 14 6 C12.68 6 11.36 6 10 6 C8.00936177 8.20351817 8.00936177 8.20351817 6.3125 11 C5.22457552 12.67731397 4.1245965 14.34704976 3 16 C2.67 16 2.34 16 2 16 C2 14.02 2 12.04 2 10 C1.401875 10.350625 0.80375 10.70125 0.1875 11.0625 C-2 12 -2 12 -5 11 C-5 11.66 -5 12.32 -5 13 C-6.18169546 14.14793273 -7.36571177 15.29359238 -8.5625 16.42578125 C-10.76250794 18.83502907 -12.28194639 21.59782735 -13.88671875 24.42578125 C-14.43779297 25.20501953 -14.43779297 25.20501953 -15 26 C-15.66 26 -16.32 26 -17 26 C-15.42281227 21.16638349 -12.65644748 17.56321293 -9.625 13.5625 C-6.28805232 9.11472348 -3.03835075 4.65832449 0 0 Z " fill="#B08875" transform="translate(140,88)"/>
<path d="M0 0 C3.23012516 3.88948557 6.02516627 7.94048716 8.75 12.1875 C9.16121094 12.81591797 9.57242188 13.44433594 9.99609375 14.09179688 C13 18.75733233 13 18.75733233 13 21 C2.11 21 -8.78 21 -20 21 C-20 20.67 -20 20.34 -20 20 C-12.08 20 -4.16 20 4 20 C2.6906708 15.28670982 2.6906708 15.28670982 1.3671875 10.57739258 C0.38314677 6.96289774 -0.23274475 3.74573575 0 0 Z " fill="#8C7283" transform="translate(154,99)"/>
<path d="M0 0 C1.98 0 3.96 0 6 0 C5.38885413 3.14869113 4.75878556 6.29329435 4.125 9.4375 C3.95097656 10.33533203 3.77695313 11.23316406 3.59765625 12.15820312 C3.42363281 13.01220703 3.24960938 13.86621094 3.0703125 14.74609375 C2.91320801 15.53685303 2.75610352 16.3276123 2.59423828 17.14233398 C2.30009033 18.06187866 2.30009033 18.06187866 2 19 C1.34 19.33 0.68 19.66 0 20 C-0.33 18.35 -0.66 16.7 -1 15 C-1.99 15 -2.98 15 -4 15 C-4.33 15.66 -4.66 16.32 -5 17 C-5.63096217 6.83449836 -5.63096217 6.83449836 -3.0625 3.4375 C-2.381875 2.963125 -1.70125 2.48875 -1 2 C-0.67 1.34 -0.34 0.68 0 0 Z " fill="#E9EAF2" transform="translate(217,49)"/>
<path d="M0 0 C5.27002208 4.39168507 10.35302051 8.9426379 15 14 C15 14.33 15 14.66 15 15 C10.05 15 5.1 15 0 15 C0 10.05 0 5.1 0 0 Z " fill="#C9A344" transform="translate(192,33)"/>
<path d="M0 0 C7.26 0 14.52 0 22 0 C22 1.98 22 3.96 22 6 C16.5957757 6.2248832 12.18724757 5.4886411 7.0625 4 C6.03672852 3.71382812 6.03672852 3.71382812 4.99023438 3.421875 C3.32455474 2.95595063 1.66193325 2.47911589 0 2 C0 1.34 0 0.68 0 0 Z " fill="#F2F4FB" transform="translate(179,141)"/>
<path d="M0 0 C4.06060248 4.62269065 6.86814016 9.82332817 9.8125 15.1875 C10.5849707 16.55938477 10.5849707 16.55938477 11.37304688 17.95898438 C11.85451172 18.83232422 12.33597656 19.70566406 12.83203125 20.60546875 C13.27264893 21.40106201 13.7132666 22.19665527 14.16723633 23.01635742 C14.44204834 23.67095947 14.71686035 24.32556152 15 25 C14.67 25.66 14.34 26.32 14 27 C13.37351563 26.36191406 12.74703125 25.72382812 12.1015625 25.06640625 C11.28429687 24.24011719 10.46703125 23.41382812 9.625 22.5625 C8.81289062 21.73878906 8.00078125 20.91507813 7.1640625 20.06640625 C5.17651485 17.96565328 5.17651485 17.96565328 3 17 C2.36765486 14.73167936 1.84226125 12.43298739 1.375 10.125 C1.11460937 8.86945313 0.85421875 7.61390625 0.5859375 6.3203125 C0 3 0 3 0 0 Z " fill="#C9C7DF" transform="translate(161,63)"/>
<path d="M0 0 C0.99 0 1.98 0 3 0 C3 0.99 3 1.98 3 3 C16.53 3 30.06 3 44 3 C44 3.33 44 3.66 44 4 C25.52 4 7.04 4 -12 4 C-12.33 5.65 -12.66 7.3 -13 9 C-13.33 9 -13.66 9 -14 9 C-14 6.69 -14 4.38 -14 2 C-9.38 2 -4.76 2 0 2 C0 1.34 0 0.68 0 0 Z " fill="#1A205E" transform="translate(90,27)"/>
<path d="M0 0 C3.19249477 2.96647745 5.4592987 6.04963636 7.75 9.75 C8.36359375 10.73484375 8.9771875 11.7196875 9.609375 12.734375 C10.29773438 13.85585937 10.29773438 13.85585937 11 15 C9.3545622 16.68762851 7.68711423 18.3540349 6 20 C5.67 20 5.34 20 5 20 C4.16247839 17.04283593 3.33069969 14.084087 2.5 11.125 C2.26152344 10.28324219 2.02304688 9.44148438 1.77734375 8.57421875 C1.55175781 7.76855469 1.32617188 6.96289062 1.09375 6.1328125 C0.88427734 5.38918457 0.67480469 4.64555664 0.45898438 3.87939453 C0 2 0 2 0 0 Z " fill="#C7C5DC" transform="translate(119,84)"/>
<path d="M0 0 C1.32 0.66 2.64 1.32 4 2 C4 18.17 4 34.34 4 51 C3.67 51 3.34 51 3 51 C2.67 35.16 2.34 19.32 2 3 C-3.28 3 -8.56 3 -14 3 C-14 2.67 -14 2.34 -14 2 C-9.38 2 -4.76 2 0 2 C0 1.34 0 0.68 0 0 Z " fill="#2E3067" transform="translate(207,46)"/>
<path d="M0 0 C0.33 0 0.66 0 1 0 C2.33257403 15.74487472 2.33257403 15.74487472 1 23 C0.67 23 0.34 23 0 23 C0 20.36 0 17.72 0 15 C-1.65 14.67 -3.3 14.34 -5 14 C-4.67 11.03 -4.34 8.06 -4 5 C-3.01 5 -2.02 5 -1 5 C-0.67 3.35 -0.34 1.7 0 0 Z " fill="#424683" transform="translate(75,107)"/>
<path d="M0 0 C0.66 0.33 1.32 0.66 2 1 C2.99 0.67 3.98 0.34 5 0 C5 2.62113708 4.68707555 4.50935112 4 7 C2.35 7.33 0.7 7.66 -1 8 C5.27 8.33 11.54 8.66 18 9 C18 9.33 18 9.66 18 10 C10.41 10 2.82 10 -5 10 C-3.51799926 6.29499816 -2.091496 3.32738 0 0 Z " fill="#A8847A" transform="translate(98,110)"/>
<path d="M0 0 C0.66 0 1.32 0 2 0 C2.33 2.31 2.66 4.62 3 7 C0 7 0 7 -2 6 C-2 7.65 -2 9.3 -2 11 C-2.70125 11.165 -3.4025 11.33 -4.125 11.5 C-8.31359067 13.68535165 -10.39230949 17.14671162 -13 21 C-13.66 20.67 -14.32 20.34 -15 20 C-11 14.66666667 -7 9.33333333 -3 4 C-2.48606689 3.25975586 -1.97213379 2.51951172 -1.44262695 1.75683594 C-0.96656006 1.17708008 -0.49049316 0.59732422 0 0 Z " fill="#AD897C" transform="translate(151,96)"/>
<path d="M0 0 C8.43373483 1.29165308 16.7078409 2.99383248 25 5 C25 5.33 25 5.66 25 6 C21.93726169 6.05410136 18.87548548 6.09372225 15.8125 6.125 C14.51602539 6.15013672 14.51602539 6.15013672 13.19335938 6.17578125 C4.51850739 6.24225521 4.51850739 6.24225521 1 4 C0.1875 1.875 0.1875 1.875 0 0 Z " fill="#DBDFF6" transform="translate(106,23)"/>
<path d="M0 0 C1.32 0.66 2.64 1.32 4 2 C3.01 2.495 3.01 2.495 2 3 C2.19078125 3.74765625 2.3815625 4.4953125 2.578125 5.265625 C3.23969625 8.20423217 3.80096037 10.9927708 4 14 C2.125 16.6875 2.125 16.6875 0 18 C0 17.34 0 16.68 0 16 C-0.66 16 -1.32 16 -2 16 C-2.33 14.68 -2.66 13.36 -3 12 C-2.34 12 -1.68 12 -1 12 C-1.020625 10.948125 -1.04125 9.89625 -1.0625 8.8125 C-1.01103198 5.67295096 -0.73482813 3.03116604 0 0 Z " fill="#B79177" transform="translate(164,80)"/>
<path d="M0 0 C0.99 0 1.98 0 3 0 C5.42650927 6.20107925 4.66517133 10.63392191 3 17 C2.01 16.67 1.02 16.34 0 16 C-0.19441368 13.7089095 -0.38033135 11.41709663 -0.5625 9.125 C-0.71912109 7.21074219 -0.71912109 7.21074219 -0.87890625 5.2578125 C-1 2 -1 2 0 0 Z " fill="#E4E6EE" transform="translate(213,64)"/>
<path d="M0 0 C0.66 0 1.32 0 2 0 C0.43626854 4.69119439 -2.15820132 8.25622158 -5.0625 12.1875 C-8.28371363 16.43524864 -8.28371363 16.43524864 -11 21 C-11.99 21 -12.98 21 -14 21 C-12.40277147 16.06485078 -9.51692784 12.34276068 -6.4375 8.25 C-5.93025391 7.56550781 -5.42300781 6.88101563 -4.90039062 6.17578125 C-1.20225024 1.20225024 -1.20225024 1.20225024 0 0 Z " fill="#322B63" transform="translate(130,99)"/>
<path d="M0 0 C0.99 0 1.98 0 3 0 C4.71875 2.23046875 4.71875 2.23046875 6.5 5.1875 C7.0878125 6.15042969 7.675625 7.11335938 8.28125 8.10546875 C8.8484375 9.06066406 9.415625 10.01585938 10 11 C10.5671875 11.94488281 11.134375 12.88976562 11.71875 13.86328125 C12.1415625 14.56839844 12.564375 15.27351563 13 16 C12.01 16.33 11.02 16.66 10 17 C7.36 13.04 4.72 9.08 2 5 C1.01 5.66 0.02 6.32 -1 7 C-1.66 6.34 -2.32 5.68 -3 5 C-1.6875 2.5 -1.6875 2.5 0 0 Z " fill="#1C3080" transform="translate(115,76)"/>
<path d="M0 0 C1.65 0 3.3 0 5 0 C5.33 0.99 5.66 1.98 6 3 C4.68 3 3.36 3 2 3 C1.01 7.62 0.02 12.24 -1 17 C-3.31 17 -5.62 17 -8 17 C-7.34 16.67 -6.68 16.34 -6 16 C-6 15.34 -6 14.68 -6 14 C-5.01 14 -4.02 14 -3 14 C-2.814375 12.4840625 -2.814375 12.4840625 -2.625 10.9375 C-2.01914665 7.12062388 -1.12806088 3.68499888 0 0 Z " fill="#47498B" transform="translate(204,133)"/>
<path d="M0 0 C1.98 0 3.96 0 6 0 C5.57730231 3.41943506 5.08008783 6.72174346 4 10 C1.375 11.625 1.375 11.625 -1 12 C-1.02698189 10.37509046 -1.04638757 8.75005367 -1.0625 7.125 C-1.07410156 6.22007813 -1.08570313 5.31515625 -1.09765625 4.3828125 C-1 2 -1 2 0 0 Z " fill="#F3F4F9" transform="translate(217,49)"/>
<path d="M0 0 C1.65 0 3.3 0 5 0 C5 1.65 5 3.3 5 5 C4.34 5 3.68 5 3 5 C3 5.66 3 6.32 3 7 C2.01 7 1.02 7 0 7 C-0.33 7.99 -0.66 8.98 -1 10 C-1.99 10 -2.98 10 -4 10 C-4.33 9.01 -4.66 8.02 -5 7 C-4.67 6.34 -4.34 5.68 -4 5 C-3.34 5 -2.68 5 -2 5 C-1.34 3.35 -0.68 1.7 0 0 Z " fill="#BB8D65" transform="translate(130,108)"/>
<path d="M0 0 C1.98 0 3.96 0 6 0 C4.46112863 3.31746641 2.54788012 6.20477069 0.4375 9.1875 C-0.18253906 10.06792969 -0.80257812 10.94835937 -1.44140625 11.85546875 C-3 14 -3 14 -4 15 C-7.375 15.25 -7.375 15.25 -11 15 C-11.99 14.01 -12.98 13.02 -14 12 C-10.7 12.33 -7.4 12.66 -4 13 C-4 12.34 -4 11.68 -4 11 C-3.34 11 -2.68 11 -2 11 C-2 9.35 -2 7.7 -2 6 C-1.34 6 -0.68 6 0 6 C0 5.34 0 4.68 0 4 C0.66 3.34 1.32 2.68 2 2 C1.34 1.34 0.68 0.68 0 0 Z " fill="#E3BD49" transform="translate(145,68)"/>
<path d="M0 0 C0.66 0 1.32 0 2 0 C2.38316311 7.53554107 1.5817916 14.86023062 -1 22 C-1.99 22.33 -2.98 22.66 -4 23 C-2.7399707 15.31918309 -1.41621567 7.65359108 0 0 Z " fill="#36397B" transform="translate(222,48)"/>
<path d="M0 0 C0.66 0.33 1.32 0.66 2 1 C1.35546875 1.68449219 0.7109375 2.36898437 0.046875 3.07421875 C-2.38171902 6.54562508 -2.58062692 8.6205163 -2.75 12.8125 C-2.80671875 13.97394531 -2.8634375 15.13539062 -2.921875 16.33203125 C-2.94765625 17.21246094 -2.9734375 18.09289062 -3 19 C-2.34 19 -1.68 19 -1 19 C-0.34 20.65 0.32 22.3 1 24 C-1.97577944 22.97386916 -2.97754061 22.03368909 -4.75 19.375 C-6.20903397 15.43560827 -6.98340083 12.10131508 -6 8 C-4.27642297 5.07241699 -2.26069784 2.52982853 0 0 Z " fill="#D8BF5F" transform="translate(130,56)"/>
<path d="M0 0 C8.51533787 -0.41425968 16.936735 -0.03778821 25 3 C25.33 3.99 25.66 4.98 26 6 C17.26067362 4.63948216 8.63387662 2.91580102 0 1 C0 0.67 0 0.34 0 0 Z " fill="#3C417F" transform="translate(142,137)"/>
<path d="M0 0 C4.62 0 9.24 0 14 0 C14 1.32 14 2.64 14 4 C9.38 4 4.76 4 0 4 C0 2.66666667 0 1.33333333 0 0 Z " fill="#EAE9ED" transform="translate(178,137)"/>
<path d="M0 0 C1.08112948 2.01810837 1.951064 3.739008 2.375 6 C2.88150853 8.19725912 2.88150853 8.19725912 5 9.875 C7.49147225 12.52218926 7.67660307 14.4426338 8 18 C6.02 18.99 6.02 18.99 4 20 C3.32550034 17.60612843 2.66023359 15.21030779 2 12.8125 C1.80921875 12.13896484 1.6184375 11.46542969 1.421875 10.77148438 C0.4174164 7.09444844 -0.23704741 3.8149818 0 0 Z " fill="#9A7471" transform="translate(154,99)"/>
<path d="M0 0 C0.66 0 1.32 0 2 0 C0.92598892 2.91517292 0.22189824 4.77810176 -2 7 C-4.8203125 7.1953125 -4.8203125 7.1953125 -8.125 7.125 C-9.22070312 7.10695313 -10.31640625 7.08890625 -11.4453125 7.0703125 C-12.28835937 7.04710938 -13.13140625 7.02390625 -14 7 C-12.25 2.125 -12.25 2.125 -10 1 C-10 1.99 -10 2.98 -10 4 C-8.02 4 -6.04 4 -4 4 C-3.67 3.34 -3.34 2.68 -3 2 C-2.01 2 -1.02 2 0 2 C0 1.34 0 0.68 0 0 Z " fill="#A9857F" transform="translate(133,113)"/>
<path d="M0 0 C0.99 0 1.98 0 3 0 C2.36934845 5.7809725 1.34844868 11.3443706 0 17 C-0.99 16.67 -1.98 16.34 -3 16 C-2.68806536 14.27073126 -2.37542638 12.54158956 -2.0625 10.8125 C-1.88847656 9.84957031 -1.71445313 8.88664062 -1.53515625 7.89453125 C-1.0476265 5.25760028 -0.53328895 2.6280095 0 0 Z " fill="#424684" transform="translate(217,71)"/>
<path d="M0 0 C2.0625 0.4375 2.0625 0.4375 4 1 C4 3 4 3 1.6875 5.4375 C0.800625 6.283125 -0.08625 7.12875 -1 8 C-1.598125 8.598125 -2.19625 9.19625 -2.8125 9.8125 C-3.204375 10.204375 -3.59625 10.59625 -4 11 C-7 6.25 -7 6.25 -7 4 C-7.99 3.67 -8.98 3.34 -10 3 C-9.34 2.67 -8.68 2.34 -8 2 C-7.34 2.33 -6.68 2.66 -6 3 C-6 3.66 -6 4.32 -6 5 C-4.35 5.33 -2.7 5.66 -1 6 C-1.020625 5.195625 -1.04125 4.39125 -1.0625 3.5625 C-1 1 -1 1 0 0 Z " fill="#689AE7" transform="translate(157,54)"/>
<path d="M0 0 C1.71256087 0.14385511 3.42398455 0.31733585 5.125 0.5625 C5.455 1.2225 5.785 1.8825 6.125 2.5625 C3.155 2.2325 0.185 1.9025 -2.875 1.5625 C-2.875 2.2225 -2.875 2.8825 -2.875 3.5625 C-3.535 3.5625 -4.195 3.5625 -4.875 3.5625 C-4.91625 4.18125 -4.9575 4.8 -5 5.4375 C-5.28875 6.13875 -5.5775 6.84 -5.875 7.5625 C-8.9375 8.8125 -8.9375 8.8125 -11.875 9.5625 C-9.04546054 3.54525153 -7.08233778 -0.0822465 0 0 Z " fill="#E5C237" transform="translate(138.875,53.4375)"/>
<path d="M0 0 C0.33 0 0.66 0 1 0 C1 3.63 1 7.26 1 11 C0.34 11 -0.32 11 -1 11 C-1.33 12.65 -1.66 14.3 -2 16 C-2.66 16 -3.32 16 -4 16 C-3.47606294 10.13190493 -2.23891142 5.45126259 0 0 Z " fill="#343885" transform="translate(76,96)"/>
<path d="M0 0 C0.66 0.66 1.32 1.32 2 2 C0.57455646 4.1755197 -0.86414548 6.33981854 -2.3125 8.5 C-2.71662109 9.12003906 -3.12074219 9.74007812 -3.53710938 10.37890625 C-4.61492467 11.97372238 -5.80183832 13.4935031 -7 15 C-7.99 15 -8.98 15 -10 15 C-8.89789095 13.24870343 -7.79322568 11.49901536 -6.6875 9.75 C-6.07261719 8.77546875 -5.45773438 7.8009375 -4.82421875 6.796875 C-3.29524241 4.45266287 -1.71179023 2.21215968 0 0 Z " fill="#2D2854" transform="translate(152,67)"/>
<path d="M0 0 C5.58514541 4.74737359 7.54903436 11.10791321 9 18 C5.69330664 15.26307534 4.13219468 11.60004821 2.3125 7.8125 C1.99216797 7.15830078 1.67183594 6.50410156 1.34179688 5.83007812 C0.55571708 4.22272093 -0.22288683 2.61171142 -1 1 C-0.67 0.67 -0.34 0.34 0 0 Z " fill="#222D77" transform="translate(174,82)"/>
<path d="M0 0 C1.485 0.99 1.485 0.99 3 2 C5.75417318 2.30066154 8.42645147 2.50925299 11.1875 2.625 C12.31188477 2.68300781 12.31188477 2.68300781 13.45898438 2.7421875 C15.30559199 2.83628216 17.1527619 2.91922319 19 3 C19 3.33 19 3.66 19 4 C12.565 4.495 12.565 4.495 6 5 C5.67 8.63 5.34 12.26 5 16 C4.67 16 4.34 16 4 16 C4 12.04 4 8.08 4 4 C2.68 4 1.36 4 0 4 C0 2.68 0 1.36 0 0 Z " fill="#283D91" transform="translate(190,46)"/>
<path d="M0 0 C4.95 0 9.9 0 15 0 C15 1.32 15 2.64 15 4 C13.06115111 3.71743908 11.12394039 3.4236207 9.1875 3.125 C8.10855469 2.96257812 7.02960938 2.80015625 5.91796875 2.6328125 C3 2 3 2 0 0 Z " fill="#D9DBF2" transform="translate(151,136)"/>
<path d="M0 0 C1.91789713 0.28346278 3.83429183 0.5771028 5.75 0.875 C7.35101563 1.11863281 7.35101563 1.11863281 8.984375 1.3671875 C11.67708871 1.93223882 13.63572439 2.63422914 16 4 C13.5257021 5.23714895 12.28500667 4.95581362 9.5625 4.625 C8.78003906 4.53476562 7.99757813 4.44453125 7.19140625 4.3515625 C5 4 5 4 2 3 C2 2.34 2 1.68 2 1 C1.34 0.67 0.68 0.34 0 0 Z " fill="#47498B" transform="translate(117,23)"/>
<path d="M0 0 C3.65316671 1.24976756 4.78065836 1.67098753 7 5 C6.67 5.66 6.34 6.32 6 7 C4.02 7 2.04 7 0 7 C0 4.69 0 2.38 0 0 Z " fill="#F8C119" transform="translate(195,38)"/>
<path d="M0 0 C0.680625 0.309375 1.36125 0.61875 2.0625 0.9375 C5.36965912 2.13370649 8.51545878 2.59005397 12 3 C10.7260411 5.03833424 9.38938077 7.03852126 8 9 C7.34 9 6.68 9 6 9 C6 7.35 6 5.7 6 4 C4.35 3.67 2.7 3.34 1 3 C0.67 2.01 0.34 1.02 0 0 Z " fill="#6C99DC" transform="translate(129,80)"/>
<path d="M0 0 C5.94 0.99 5.94 0.99 12 2 C9.875 4.125 9.875 4.125 7 6 C3.75 5.5 3.75 5.5 1 4 C0.67 2.68 0.34 1.36 0 0 Z " fill="#D3D5EB" transform="translate(106,23)"/>
<path d="M0 0 C2.7443949 1.04097738 3.9787139 1.97284187 5.8125 4.3125 C7.18729237 7.4238722 7.00295901 8.80876679 6 12 C5.67 12 5.34 12 5 12 C5 10.35 5 8.7 5 7 C3.35 7.33 1.7 7.66 0 8 C0 7.34 0 6.68 0 6 C0.66 5.67 1.32 5.34 2 5 C1.34 3.35 0.68 1.7 0 0 Z " fill="#E0C04F" transform="translate(146,56)"/>
<path d="M0 0 C2.99381354 2.80466193 5.1993621 5.61184269 7.3125 9.125 C8.11107422 10.42824219 8.11107422 10.42824219 8.92578125 11.7578125 C9.28027344 12.49773437 9.63476562 13.23765625 10 14 C9.67 14.66 9.34 15.32 9 16 C8.67386719 15.44570312 8.34773437 14.89140625 8.01171875 14.3203125 C7.57472656 13.59585938 7.13773438 12.87140625 6.6875 12.125 C6.25824219 11.40570313 5.82898438 10.68640625 5.38671875 9.9453125 C3.98247625 7.73153667 3.98247625 7.73153667 1 6 C0.3125 2.875 0.3125 2.875 0 0 Z " fill="#846D87" transform="translate(155,101)"/>
<path d="M0 0 C0.33 0 0.66 0 1 0 C1 4.29 1 8.58 1 13 C0.01 13 -0.98 13 -2 13 C-1.85851011 11.3954444 -1.71164314 9.79136233 -1.5625 8.1875 C-1.48128906 7.29417969 -1.40007812 6.40085937 -1.31640625 5.48046875 C-1 3 -1 3 0 0 Z " fill="#BFC6EB" transform="translate(75,107)"/>
<path d="M0 0 C1.65 0.33 3.3 0.66 5 1 C4.19185349 2.33597652 3.37836819 3.668725 2.5625 5 C2.11003906 5.7425 1.65757813 6.485 1.19140625 7.25 C0.79824219 7.8275 0.40507813 8.405 0 9 C-0.33 9 -0.66 9 -1 9 C-0.67 6.03 -0.34 3.06 0 0 Z " fill="#5E98F3" transform="translate(93,105)"/>
<path d="M0 0 C0.99 0.33 1.98 0.66 3 1 C2.43393721 5.69023454 1.81462495 10.34500026 1 15 C0.67 15 0.34 15 0 15 C0 10.05 0 5.1 0 0 Z " fill="#D6DDF7" transform="translate(211,84)"/>
<path d="M0 0 C1.2065625 0.0309375 1.2065625 0.0309375 2.4375 0.0625 C1.4475 0.5575 1.4475 0.5575 0.4375 1.0625 C0.4375 1.7225 0.4375 2.3825 0.4375 3.0625 C-0.2225 3.0625 -0.8825 3.0625 -1.5625 3.0625 C-1.5625 4.7125 -1.5625 6.3625 -1.5625 8.0625 C-2.5525 8.3925 -3.5425 8.7225 -4.5625 9.0625 C-3.56521739 0.08695652 -3.56521739 0.08695652 0 0 Z " fill="#4E4E8B" transform="translate(95.5625,17.9375)"/>
<path d="M0 0 C3.63 0.66 7.26 1.32 11 2 C11 2.66 11 3.32 11 4 C7.37 3.67 3.74 3.34 0 3 C0 2.01 0 1.02 0 0 Z " fill="#2E316F" transform="translate(187,145)"/>
<path d="M0 0 C0.99 0 1.98 0 3 0 C3.66 1.65 4.32 3.3 5 5 C3.68 5 2.36 5 1 5 C0.34 5.66 -0.32 6.32 -1 7 C-1.66 6.34 -2.32 5.68 -3 5 C-1.6875 2.5 -1.6875 2.5 0 0 Z " fill="#27398D" transform="translate(115,76)"/>
<path d="M0 0 C0.33 0 0.66 0 1 0 C1.10957031 0.65226562 1.21914062 1.30453125 1.33203125 1.9765625 C2.26508962 7.1197623 3.34784083 11.41899779 6 16 C4.35 15.67 2.7 15.34 1 15 C-0.32286246 10.03926578 -0.08893197 5.08888488 0 0 Z " fill="#709DD1" transform="translate(123,64)"/>
<path d="M0 0 C2.31 0.33 4.62 0.66 7 1 C6.38125 1.061875 5.7625 1.12375 5.125 1.1875 C2.72238859 1.828919 2.72238859 1.828919 1.75 4.5625 C1.5025 5.366875 1.255 6.17125 1 7 C0.34 7 -0.32 7 -1 7 C-1.33 5.35 -1.66 3.7 -2 2 C-1.34 2 -0.68 2 0 2 C0 1.34 0 0.68 0 0 Z " fill="#D8D9E5" transform="translate(214,47)"/>
<path d="M0 0 C1.32 0.66 2.64 1.32 4 2 C4 2.99 4 3.98 4 5 C3.34 5 2.68 5 2 5 C2 4.34 2 3.68 2 3 C-3.28 3 -8.56 3 -14 3 C-14 2.67 -14 2.34 -14 2 C-9.38 2 -4.76 2 0 2 C0 1.34 0 0.68 0 0 Z " fill="#1F1E58" transform="translate(207,46)"/>
<path d="M0 0 C0.99 0.33 1.98 0.66 3 1 C1.35 4.3 -0.3 7.6 -2 11 C-2.99 11 -3.98 11 -5 11 C-4.34 9.68 -3.68 8.36 -3 7 C-2.34 7 -1.68 7 -1 7 C-1.020625 6.030625 -1.04125 5.06125 -1.0625 4.0625 C-1 1 -1 1 0 0 Z " fill="#5F94F1" transform="translate(107,84)"/>
<path d="M0 0 C0.99 0.33 1.98 0.66 3 1 C1.35 3.64 -0.3 6.28 -2 9 C-2.99 8.34 -3.98 7.68 -5 7 C-3.35 4.69 -1.7 2.38 0 0 Z " fill="#2F357A" transform="translate(141,82)"/>
<path d="M0 0 C1.65 1.65 3.3 3.3 5 5 C4.34 5 3.68 5 3 5 C2.34 7.64 1.68 10.28 1 13 C0.67 13 0.34 13 0 13 C0 8.71 0 4.42 0 0 Z " fill="#EAC14D" transform="translate(193,34)"/>
<path d="M0 0 C1.2065625 0.0309375 1.2065625 0.0309375 2.4375 0.0625 C1.62902271 1.23195792 0.81560888 2.39800461 0 3.5625 C-0.45246094 4.2121875 -0.90492188 4.861875 -1.37109375 5.53125 C-1.76425781 6.0365625 -2.15742188 6.541875 -2.5625 7.0625 C-2.8925 7.0625 -3.2225 7.0625 -3.5625 7.0625 C-3.60504356 5.06295254 -3.60330783 3.06208364 -3.5625 1.0625 C-2.5625 0.0625 -2.5625 0.0625 0 0 Z " fill="#AF887B" transform="translate(138.5625,105.9375)"/>
<path d="M0 0 C0.53625 0.268125 1.0725 0.53625 1.625 0.8125 C1.295 1.8025 0.965 2.7925 0.625 3.8125 C-0.695 3.8125 -2.015 3.8125 -3.375 3.8125 C-5.62565102 5.72916921 -5.62565102 5.72916921 -7.375 7.8125 C-7.705 6.8225 -8.035 5.8325 -8.375 4.8125 C-2.95961538 -0.23365385 -2.95961538 -0.23365385 0 0 Z " fill="#A78C87" transform="translate(153.375,90.1875)"/>
<path d="M0 0 C3.96 0 7.92 0 12 0 C12 0.99 12 1.98 12 3 C6.06 2.01 6.06 2.01 0 1 C0 0.67 0 0.34 0 0 Z " fill="#484D86" transform="translate(142,137)"/>
<path d="M0 0 C1.32 1.65 2.64 3.3 4 5 C2.33333333 5 0.66666667 5 -1 5 C-2.37310707 6.29233607 -3.71034824 7.62437146 -5 9 C-3.7508258 5.54074837 -2.32472205 2.85306797 0 0 Z " fill="#AA8D88" transform="translate(140,88)"/>
<path d="M0 0 C0.99 0.33 1.98 0.66 3 1 C3 1.66 3 2.32 3 3 C3.66 3 4.32 3 5 3 C5 3.66 5 4.32 5 5 C5.66 5.33 6.32 5.66 7 6 C6.01 7.485 6.01 7.485 5 9 C4.16094435 7.87926138 3.32892169 6.75325453 2.5 5.625 C2.0359375 4.99851562 1.571875 4.37203125 1.09375 3.7265625 C0 2 0 2 0 0 Z " fill="#5E93EE" transform="translate(121,81)"/>
<path d="M0 0 C0.66 0 1.32 0 2 0 C1.67 2.64 1.34 5.28 1 8 C0.01 7.67 -0.98 7.34 -2 7 C-1.125 1.125 -1.125 1.125 0 0 Z " fill="#4F4F88" transform="translate(216,80)"/>
<path d="M0 0 C1.98 0 3.96 0 6 0 C5.67 3.3 5.34 6.6 5 10 C4.67 10 4.34 10 4 10 C4 7.36 4 4.72 4 2 C2.68 2 1.36 2 0 2 C0 1.34 0 0.68 0 0 Z " fill="#6D6FAF" transform="translate(71,120)"/>
<path d="M0 0 C2.875 -0.1875 2.875 -0.1875 6 0 C6.66 0.99 7.32 1.98 8 3 C5.36 3 2.72 3 0 3 C0 2.01 0 1.02 0 0 Z " fill="#23287A" transform="translate(141,134)"/>
<path d="M0 0 C0.66 0.33 1.32 0.66 2 1 C-0.475 4.465 -0.475 4.465 -3 8 C-4 4 -4 4 -3 1 C-2.01 0.67 -1.02 0.34 0 0 Z " fill="#A28786" transform="translate(125,103)"/>
<path d="M0 0 C4.455 0.99 4.455 0.99 9 2 C9 3.65 9 5.3 9 7 C8.67 5.68 8.34 4.36 8 3 C7.01 3.33 6.02 3.66 5 4 C2.3125 2.0625 2.3125 2.0625 0 0 Z " fill="#555890" transform="translate(216,45)"/>
<path d="M0 0 C2.64 0.33 5.28 0.66 8 1 C8 1.66 8 2.32 8 3 C5.6568787 2.74438677 3.32156597 2.40729228 1 2 C0.67 1.34 0.34 0.68 0 0 Z " fill="#25296C" transform="translate(167,141)"/>
<path d="M0 0 C0.99 0 1.98 0 3 0 C3.99 2.31 4.98 4.62 6 7 C5.01 6.67 4.02 6.34 3 6 C3 5.34 3 4.68 3 4 C2.34 4 1.68 4 1 4 C0.67 2.68 0.34 1.36 0 0 Z " fill="#8B748D" transform="translate(174,89)"/>
<path d="M0 0 C0.66 0 1.32 0 2 0 C1.67 2.31 1.34 4.62 1 7 C0.34 7 -0.32 7 -1 7 C-0.67 4.69 -0.34 2.38 0 0 Z " fill="#313173" transform="translate(214,87)"/>
<path d="M0 0 C2.31 0.33 4.62 0.66 7 1 C6.67 1.66 6.34 2.32 6 3 C4.02 3 2.04 3 0 3 C0 2.01 0 1.02 0 0 Z " fill="#49498F" transform="translate(135,27)"/>
<path d="M0 0 C1.98 0 3.96 0 6 0 C5.38125 0.4125 4.7625 0.825 4.125 1.25 C1.93231719 3.05573879 1.07211583 4.4090534 0 7 C-1.33332095 4.3333581 -0.67102033 2.83319697 0 0 Z " fill="#CCD2EF" transform="translate(94,21)"/>
</svg>
