<?xml version="1.0" encoding="UTF-8"?>
<svg version="1.1" xmlns="http://www.w3.org/2000/svg" width="225" height="225">
<path d="M0 0 C2.38645747 -0.10046127 4.77179246 -0.165899 7.15966797 -0.22265625 C8.33082153 -0.26773315 8.33082153 -0.26773315 9.52563477 -0.3137207 C13.47059999 -0.35225154 15.45219912 -0.18750047 18.90576172 1.90625 C21.37544057 4.59738154 21.66470506 6.4970544 21.90966797 10.08984375 C22.45904526 9.92554871 23.00842255 9.76125366 23.57444763 9.59197998 C26.22151286 9.02278857 28.56571319 9.00590289 31.27319336 9.05566406 C32.87989647 9.07998505 32.87989647 9.07998505 34.51905823 9.10479736 C36.24574989 9.1360672 36.24574989 9.1360672 38.00732422 9.16796875 C40.44155581 9.19521618 42.87580159 9.22122016 45.31005859 9.24609375 C49.15101902 9.289436 52.99124788 9.34020099 56.83178711 9.41210938 C60.5362502 9.47850185 64.23990837 9.51343082 67.94482422 9.54296875 C69.09797623 9.57191223 70.25112823 9.60085571 71.43922424 9.63067627 C72.50720749 9.63428162 73.57519073 9.63788696 74.67553711 9.64160156 C75.61611465 9.65572083 76.5566922 9.66984009 77.52577209 9.68438721 C80.16279173 9.30606172 80.16279173 9.30606172 81.61180115 6.61785889 C82.0400972 5.78361389 82.46839325 4.9493689 82.90966797 4.08984375 C85.86354933 2.61290307 88.56128679 2.88053578 91.84716797 2.83984375 C93.09369141 2.8140625 94.34021484 2.78828125 95.62451172 2.76171875 C98.90966797 3.08984375 98.90966797 3.08984375 100.83935547 4.40625 C102.44620268 6.93380894 102.10410165 9.17333856 101.90966797 12.08984375 C102.63154297 12.31671875 103.35341797 12.54359375 104.09716797 12.77734375 C108.80130831 14.97260924 111.91837499 18.32622063 113.90966797 23.08984375 C115.40569359 31.46225169 115.07038065 40.20036856 115.07763672 48.671875 C115.08086172 50.0575107 115.08422665 51.44314608 115.08772278 52.82878113 C115.09366801 55.71732369 115.09556744 58.60583653 115.0949707 61.49438477 C115.09486927 65.1550857 115.10852319 68.8155919 115.12574291 72.47624683 C115.13698198 75.33425229 115.13888631 78.19221239 115.13836098 81.05023766 C115.14007935 83.04284996 115.15083908 85.03544811 115.16191101 87.0280304 C115.1057872 109.73502653 115.1057872 109.73502653 109.90966797 117.08984375 C92.41760897 129.00583154 55.98027001 124.27195213 35.65966797 124.27734375 C34.66409882 124.27834076 33.66852966 124.27933777 32.64279175 124.28036499 C22.72407308 124.27924008 12.82026014 124.17785158 2.91357422 123.66015625 C2.19961487 123.62427902 1.48565552 123.58840179 0.75006104 123.55143738 C-6.62193925 123.11267516 -13.73926104 122.07313067 -20.15283203 118.27734375 C-23.54412846 114.44846069 -25.0229713 110.35123908 -26.46533203 105.52734375 C-27.81019792 101.27215962 -29.84337496 99.1702902 -33.09033203 96.08984375 C-37.31165757 85.81054576 -36.19194152 73.04789564 -36.27783203 62.08984375 C-36.29088379 61.12312744 -36.30393555 60.15641113 -36.31738281 59.16040039 C-36.32570647 52.29159589 -35.97367306 45.02907121 -32.09033203 39.08984375 C-31.10033203 38.42984375 -30.11033203 37.76984375 -29.09033203 37.08984375 C-28.56294648 33.53556224 -28.2826965 30.05835515 -28.09423828 26.47460938 C-27.74531992 22.20221538 -27.44476243 20.51107489 -24.58251953 17.109375 C-23.76009766 16.44292969 -22.93767578 15.77648437 -22.09033203 15.08984375 C-21.76033203 14.75984375 -21.43033203 14.42984375 -21.09033203 14.08984375 C-19.42416088 14.04920543 -17.75645108 14.04712275 -16.09033203 14.08984375 C-16.19345703 12.87296875 -16.29658203 11.65609375 -16.40283203 10.40234375 C-16.3786896 6.99826162 -16.12380015 6.14058574 -14.15283203 3.15234375 C-9.49153856 0.01310529 -5.40243966 0.23220016 0 0 Z " fill="#75C5BD" transform="translate(69.09033203125,50.91015625)"/>
<path d="M0 0 C0.33 0 0.66 0 1 0 C0.95456055 1.00244751 0.95456055 1.00244751 0.90820312 2.02514648 C0.31321659 15.36314268 -0.12028473 28.64839536 0 42 C10.89 42 21.78 42 33 42 C32.9175 44.5575 32.835 47.115 32.75 49.75 C32.63220863 60.93268417 35.05632552 70.75353972 43 79 C50.24054156 86.13794279 59.35090324 89.99271176 69.5625 90.4375 C81.57789563 89.73330099 91.09490894 85.4436963 99.375 76.6875 C104.198123 70.64834882 107.15285195 62.3992734 107.09765625 54.671875 C107.09515869 53.9509668 107.09266113 53.23005859 107.09008789 52.48730469 C107.08098389 51.58399414 107.07187988 50.68068359 107.0625 49.75 C107.041875 46.8625 107.02125 43.975 107 41 C117.89 40.67 128.78 40.34 140 40 C139.67 27.13 139.34 14.26 139 1 C144.57614492 6.57614492 142.1616264 21.17729587 142.16796875 28.58203125 C142.17119375 29.96766695 142.17455868 31.35330233 142.17805481 32.73893738 C142.18400004 35.62747994 142.18589947 38.51599278 142.18530273 41.40454102 C142.1852013 45.06524195 142.19885522 48.72574815 142.21607494 52.38640308 C142.22731401 55.24440854 142.22921835 58.10236864 142.22869301 60.96039391 C142.23041138 62.95300621 142.24117111 64.94560436 142.25224304 66.93818665 C142.19611923 89.64518278 142.19611923 89.64518278 137 97 C119.507941 108.91598779 83.07060204 104.18210838 62.75 104.1875 C61.75443085 104.18849701 60.75886169 104.18949402 59.73312378 104.19052124 C49.81440511 104.18939633 39.91059217 104.08800783 30.00390625 103.5703125 C29.2899469 103.53443527 28.57598755 103.49855804 27.84039307 103.46159363 C20.46839278 103.02283141 13.351071 101.98328692 6.9375 98.1875 C3.54620357 94.35861694 2.06736073 90.26139533 0.625 85.4375 C-0.71986589 81.18231587 -2.75304293 79.08044645 -6 76 C-10.22132554 65.72070201 -9.10160949 52.95805189 -9.1875 42 C-9.20055176 41.03328369 -9.21360352 40.06656738 -9.22705078 39.07055664 C-9.23537444 32.20175214 -8.88334103 24.93922746 -5 19 C-4.01 18.34 -3.02 17.68 -2 17 C-1.4547378 14.07832766 -1.07321151 11.32175764 -0.8125 8.375 C-0.73064453 7.57320313 -0.64878906 6.77140625 -0.56445312 5.9453125 C-0.36403849 3.96474429 -0.1804193 1.98248968 0 0 Z " fill="#BEE2F6" transform="translate(42,71)"/>
<path d="M0 0 C8.09675147 6.14874271 14.11699977 13.445095 15.84375 23.6796875 C17.00608133 34.84896515 15.94642197 45.05788794 9.28125 54.45703125 C1.38706942 63.99335967 -7.78237226 68.84695559 -20.01953125 70.33984375 C-29.92295282 70.88299301 -39.5331555 67.36037485 -46.9765625 60.92578125 C-47.61335938 60.31734375 -48.25015625 59.70890625 -48.90625 59.08203125 C-49.48117188 58.53546875 -50.05609375 57.98890625 -50.6484375 57.42578125 C-58.37045758 49.28116306 -60.34018513 38.66898049 -60.25 27.82421875 C-59.33993746 17.916947 -54.18405802 8.54925442 -46.6171875 2.14453125 C-32.77662751 -8.13947617 -14.72062061 -9.71481817 0 0 Z " fill="#4F2714" transform="translate(133.90625,91.91796875)"/>
<path d="M0 0 C1.05840088 0.00858032 1.05840088 0.00858032 2.13818359 0.01733398 C9.33711514 0.26314712 13.77294767 2.31963157 18.953125 7.14453125 C25.27669662 13.94390559 26.7832249 20.12616179 26.53125 29.28125 C25.75808232 36.52091102 22.63736502 42.07147649 17.3046875 46.9921875 C11.03031635 51.46065109 3.77838425 53.35703532 -3.8125 52.5 C-11.8943399 50.90076666 -17.60114356 46.9351015 -22.421875 40.27734375 C-26.29198351 33.59162258 -26.95806899 27.09055877 -25.8125 19.5 C-23.22229918 11.20451104 -18.39175861 6.22792977 -11.078125 1.87109375 C-7.31263679 0.2901292 -4.02248722 -0.03780353 0 0 Z " fill="#E3E0DB" transform="translate(111.8125,97.5)"/>
<path d="M0 0 C0.33 0 0.66 0 1 0 C1 1.98 1 3.96 1 6 C1.721875 6.226875 2.44375 6.45375 3.1875 6.6875 C6.76087638 8.35507564 8.54916024 9.88238953 11 13 C11.67560216 16.09102766 11.58405534 19.08689307 11.48828125 22.23828125 C11.48120651 23.11904831 11.47413177 23.99981537 11.46684265 24.90727234 C11.43893848 27.70989285 11.37620943 30.51048735 11.3125 33.3125 C11.2874119 35.21676794 11.26459962 37.12106732 11.24414062 39.02539062 C11.19338241 43.68499483 11.09553038 48.34024053 11 53 C-4.345 53.495 -4.345 53.495 -20 54 C-20.66 52.35 -21.32 50.7 -22 49 C-23.0582752 47.5645178 -24.14223606 46.14764609 -25.25 44.75 C-27.08427695 42.10295626 -28.00535328 40.69806749 -27.98046875 37.453125 C-26.7091002 31.7091002 -26.7091002 31.7091002 -25 30 C-21.19986851 29.93956053 -17.41281472 29.97997178 -13.61328125 30.0390625 C-12.81535156 30.04679687 -12.01742187 30.05453125 -11.1953125 30.0625 C-10.46328613 30.07410156 -9.73125977 30.08570312 -8.97705078 30.09765625 C-6.7865758 30.07832506 -6.7865758 30.07832506 -4 29 C-4 28.34 -4 27.68 -4 27 C-3.34 27 -2.68 27 -2 27 C-3.34558185 23.03397839 -3.34558185 23.03397839 -6 20 C-10.39810402 18.93306404 -14.74218195 19.02156362 -19.25 19.0625 C-21.08304688 19.03833008 -21.08304688 19.03833008 -22.953125 19.01367188 C-25.96988358 18.97831924 -28.98323645 18.97495541 -32 19 C-32 20.98 -32 22.96 -32 25 C-32.66 25 -33.32 25 -34 25 C-34.25 18.375 -34.25 18.375 -32 15 C-27.02681991 9.94691059 -22.70075591 8.3081897 -15.671875 8.1171875 C-14.70765625 8.11976562 -13.7434375 8.12234375 -12.75 8.125 C-11.7703125 8.104375 -10.790625 8.08375 -9.78125 8.0625 C-7.18652714 8.01287415 -4.59511165 7.99622019 -2 8 C-0.68 8 0.64 8 2 8 C1.34 7.67 0.68 7.34 0 7 C0 4.69 0 2.38 0 0 Z " fill="#74C6BE" transform="translate(170,57)"/>
<path d="M0 0 C2.38645747 -0.10046127 4.77179246 -0.165899 7.15966797 -0.22265625 C8.33082153 -0.26773315 8.33082153 -0.26773315 9.52563477 -0.3137207 C13.4585207 -0.35213356 15.47139752 -0.16859444 18.93701172 1.875 C20.90966797 4.08984375 20.90966797 4.08984375 21.22216797 7.83984375 C21.11904297 8.91234375 21.01591797 9.98484375 20.90966797 11.08984375 C22.22966797 11.41984375 23.54966797 11.74984375 24.90966797 12.08984375 C13.02966797 13.07984375 13.02966797 13.07984375 0.90966797 14.08984375 C0.90966797 14.74984375 0.90966797 15.40984375 0.90966797 16.08984375 C-0.15251953 16.13882813 -1.21470703 16.1878125 -2.30908203 16.23828125 C-12.8353449 16.7734459 -12.8353449 16.7734459 -23.09033203 19.08984375 C-23.20354059 24.17288061 -23.20354059 24.17288061 -22.09033203 29.08984375 C-21.43033203 27.76984375 -20.77033203 26.44984375 -20.09033203 25.08984375 C-19.43033203 25.08984375 -18.77033203 25.08984375 -18.09033203 25.08984375 C-18.42033203 23.76984375 -18.75033203 22.44984375 -19.09033203 21.08984375 C-12.44267553 18.87395825 -7.82179639 19.29662578 -1.09033203 21.08984375 C-1.09033203 21.74984375 -1.09033203 22.40984375 -1.09033203 23.08984375 C-0.43033203 23.08984375 0.22966797 23.08984375 0.90966797 23.08984375 C1.38404297 23.74984375 1.85841797 24.40984375 2.34716797 25.08984375 C3.12060547 26.07984375 3.12060547 26.07984375 3.90966797 27.08984375 C4.89966797 27.08984375 5.88966797 27.08984375 6.90966797 27.08984375 C6.90966797 26.42984375 6.90966797 25.76984375 6.90966797 25.08984375 C10.1966303 24.29031237 11.61989989 23.99325439 14.90966797 25.08984375 C15.40466797 29.54484375 15.40466797 29.54484375 15.90966797 34.08984375 C14.28795557 34.47881536 12.66211872 34.85062673 11.03466797 35.21484375 C10.12974609 35.42367187 9.22482422 35.6325 8.29248047 35.84765625 C7.50615234 35.92757812 6.71982422 36.0075 5.90966797 36.08984375 C3.95750362 34.1376794 3.06140152 32.55784422 1.90966797 30.08984375 C1.72791016 30.70472656 1.54615234 31.31960937 1.35888672 31.953125 C1.10751953 32.76136719 0.85615234 33.56960937 0.59716797 34.40234375 C0.35353516 35.20285156 0.10990234 36.00335938 -0.14111328 36.828125 C-1.44790864 39.94184728 -3.14878371 41.49352982 -5.96533203 43.27734375 C-8.5876319 44.27998782 -10.29777732 44.4303992 -13.09033203 44.08984375 C-15.90283203 42.58984375 -15.90283203 42.58984375 -18.09033203 41.08984375 C-18.09033203 41.41984375 -18.09033203 41.74984375 -18.09033203 42.08984375 C-18.75033203 42.74984375 -19.41033203 43.40984375 -20.09033203 44.08984375 C-20.42033203 42.76984375 -20.75033203 41.44984375 -21.09033203 40.08984375 C-21.75033203 40.08984375 -22.41033203 40.08984375 -23.09033203 40.08984375 C-23.09033203 39.42984375 -23.09033203 38.76984375 -23.09033203 38.08984375 C-24.08033203 38.58484375 -24.08033203 38.58484375 -25.09033203 39.08984375 C-25.55988404 41.31797222 -25.55988404 41.31797222 -25.72314453 44 C-25.79936035 44.89082275 -25.87557617 45.78164551 -25.95410156 46.69946289 C-26.04030762 47.83891357 -26.12651367 48.97836426 -26.21533203 50.15234375 C-26.50408203 53.76171875 -26.79283203 57.37109375 -27.09033203 61.08984375 C-15.87033203 61.08984375 -4.65033203 61.08984375 6.90966797 61.08984375 C6.41466797 62.07984375 6.41466797 62.07984375 5.90966797 63.08984375 C-4.98033203 62.75984375 -15.87033203 62.42984375 -27.09033203 62.08984375 C-27.09033203 65.05984375 -27.09033203 68.02984375 -27.09033203 71.08984375 C-27.42033203 71.08984375 -27.75033203 71.08984375 -28.09033203 71.08984375 C-28.31143637 57.44770587 -28.22472924 43.83737248 -27.40283203 30.21484375 C-27.34949707 29.06330811 -27.29616211 27.91177246 -27.24121094 26.7253418 C-26.69097274 18.77434014 -26.69097274 18.77434014 -23.68408203 15.34765625 C-20.8855059 13.99051542 -19.15967089 13.73906217 -16.09033203 14.08984375 C-16.19345703 12.87296875 -16.29658203 11.65609375 -16.40283203 10.40234375 C-16.3786896 6.99826162 -16.12380015 6.14058574 -14.15283203 3.15234375 C-9.49153856 0.01310529 -5.40243966 0.23220016 0 0 Z " fill="#67A8A7" transform="translate(69.09033203125,50.91015625)"/>
<path d="M0 0 C2.7839183 1.39195915 2.97898997 3.15575779 4 6 C4.94875 5.938125 5.8975 5.87625 6.875 5.8125 C7.90625 5.874375 8.9375 5.93625 10 6 C10.66 6.99 11.32 7.98 12 9 C11.67 9.66 11.34 10.32 11 11 C11.66 11 12.32 11 13 11 C12.6257368 16.36443913 11.0040457 18.49646001 7 22 C6.505 22.495 6.505 22.495 6 23 C6.66 23.33 7.32 23.66 8 24 C6.125 29.75 6.125 29.75 5 32 C-6.22 32 -17.44 32 -29 32 C-28.67 24.74 -28.34 17.48 -28 10 C-27.01 9.67 -26.02 9.34 -25 9 C-25 9.66 -25 10.32 -25 11 C-24.34 11 -23.68 11 -23 11 C-22.67 11.66 -22.34 12.32 -22 13 C-21.67 12.34 -21.34 11.68 -21 11 C-20.34 10.67 -19.68 10.34 -19 10 C-19 10.66 -19 11.32 -19 12 C-15.22946872 13.83140091 -13.01387791 14.3379593 -9 13 C-6.82967524 11.56009377 -6.82967524 11.56009377 -5 10 C-4.34 9.67 -3.68 9.34 -3 9 C-2.09274566 6.88672575 -2.09274566 6.88672575 -1.375 4.4375 C-1.11460938 3.61121094 -0.85421875 2.78492187 -0.5859375 1.93359375 C-0.39257812 1.29550781 -0.19921875 0.65742187 0 0 Z " fill="#72C5BF" transform="translate(71,80)"/>
<path d="M0 0 C4.34909564 3.72779626 7.27262219 6.52394817 8.25 12.25 C8.53474305 17.21625382 7.18552949 20.93116359 4.1875 24.875 C-1.01045916 29.01215117 -5.17056438 30.52830514 -11.8125 29.875 C-16.97294508 27.59304172 -20.31594047 25.01761365 -22.8125 19.875 C-23.77892575 14.79776326 -23.99347183 9.9094208 -21.34765625 5.3515625 C-15.67898949 -1.28784846 -8.3494178 -3.33976712 0 0 Z " fill="#4E2916" transform="translate(119.8125,108.125)"/>
<path d="M0 0 C1.05840088 0.00858032 1.05840088 0.00858032 2.13818359 0.01733398 C9.38100286 0.2646457 14.01682941 2.29623264 19.05859375 7.390625 C20.51657024 9.04726341 21.88127249 10.7225061 23.1875 12.5 C20.67737037 15.01012963 19.71944763 14.79721609 16.25 14.8125 C14.93708984 14.83763672 14.93708984 14.83763672 13.59765625 14.86328125 C10.72512201 14.43030607 10.07058012 13.61913575 8.1875 11.5 C3.00751432 9.77333811 -2.60999878 9.59027123 -7.6875 11.6875 C-8.38875 12.285625 -9.09 12.88375 -9.8125 13.5 C-10.575625 14.139375 -11.33875 14.77875 -12.125 15.4375 C-14.76377996 20.22639696 -14.27792157 25.14383703 -13.8125 30.5 C-13.4825 31.49 -13.1525 32.48 -12.8125 33.5 C-14.1325 34.16 -15.4525 34.82 -16.8125 35.5 C-20.75096154 31.19230769 -20.75096154 31.19230769 -21.0625 27.6875 C-20.98 26.965625 -20.8975 26.24375 -20.8125 25.5 C-21.8025 25.5 -22.7925 25.5 -23.8125 25.5 C-22.23584814 31.54383212 -20.62074293 36.50988858 -16.8125 41.5 C-18.7925 41.995 -18.7925 41.995 -20.8125 42.5 C-25.57633885 34.9629264 -27.15237136 28.37800943 -25.8125 19.5 C-23.22229918 11.20451104 -18.39175861 6.22792977 -11.078125 1.87109375 C-7.31263679 0.2901292 -4.02248722 -0.03780353 0 0 Z " fill="#E4DDDA" transform="translate(111.8125,97.5)"/>
<path d="M0 0 C0.33 0 0.66 0 1 0 C0.97494385 0.62116699 0.9498877 1.24233398 0.92407227 1.88232422 C0.26447098 18.25419644 -0.37528187 34.62676049 -1 51 C-0.34 51 0.32 51 1 51 C1.74984705 55.00091404 2.1195296 58.76749517 2.09765625 62.8359375 C2.09443359 63.89941406 2.09121094 64.96289062 2.08789062 66.05859375 C2.07951172 67.15300781 2.07113281 68.24742187 2.0625 69.375 C2.05798828 70.49261719 2.05347656 71.61023438 2.04882812 72.76171875 C2.03709244 75.50786804 2.02067363 78.25390586 2 81 C-2.83398438 80.19042969 -2.83398438 80.19042969 -4.328125 78.4765625 C-4.63234375 77.86554688 -4.9365625 77.25453125 -5.25 76.625 C-5.56453125 76.01914063 -5.8790625 75.41328125 -6.203125 74.7890625 C-10.4485279 65.25771676 -9.11419648 52.27567103 -9.1875 42 C-9.20047119 41.03352539 -9.21344238 40.06705078 -9.22680664 39.07128906 C-9.23572273 32.20233053 -8.88340369 24.93932328 -5 19 C-4.01 18.34 -3.02 17.68 -2 17 C-1.4547378 14.07832766 -1.07321151 11.32175764 -0.8125 8.375 C-0.73064453 7.57320313 -0.64878906 6.77140625 -0.56445312 5.9453125 C-0.36403849 3.96474429 -0.1804193 1.98248968 0 0 Z " fill="#96CBE9" transform="translate(42,71)"/>
<path d="M0 0 C2.38507924 -0.09942015 4.76872369 -0.16140238 7.15527344 -0.21386719 C8.32630615 -0.25870239 8.32630615 -0.25870239 9.52099609 -0.30444336 C13.45404889 -0.34369791 15.46692498 -0.15985137 18.93261719 1.88378906 C20.90527344 4.09863281 20.90527344 4.09863281 21.21777344 7.84863281 C21.11464844 8.92113281 21.01152344 9.99363281 20.90527344 11.09863281 C22.22527344 11.42863281 23.54527344 11.75863281 24.90527344 12.09863281 C19.85174033 12.52800803 14.7980289 12.95519659 9.74414062 13.38037109 C8.02533998 13.52527941 6.30658934 13.67078226 4.58789062 13.81689453 C2.11568951 14.02696018 -0.35668433 14.23487827 -2.82910156 14.44238281 C-3.59591248 14.50800415 -4.36272339 14.57362549 -5.152771 14.64123535 C-8.48565978 14.91909256 -11.747079 15.09863281 -15.09472656 15.09863281 C-15.20287881 13.32914186 -15.28038739 11.55775794 -15.34472656 9.78613281 C-15.39113281 8.8 -15.43753906 7.81386719 -15.48535156 6.79785156 C-15.09472656 4.09863281 -15.09472656 4.09863281 -13.30566406 2.28613281 C-9.13001635 0.0433821 -4.62959841 0.21799041 0 0 Z " fill="#F16A69" transform="translate(69.0947265625,50.9013671875)"/>
<path d="M0 0 C2.82336127 2.42002395 4.96192834 4.8863752 7.1875 7.875 C7.1875 8.535 7.1875 9.195 7.1875 9.875 C6.1975 10.535 5.2075 11.195 4.1875 11.875 C3.46367533 13.93425139 3.46367533 13.93425139 3.1875 15.875 C2.5275 15.875 1.8675 15.875 1.1875 15.875 C0.8575 16.865 0.5275 17.855 0.1875 18.875 C-0.8025 18.215 -1.7925 17.555 -2.8125 16.875 C-2.626875 15.781875 -2.44125 14.68875 -2.25 13.5625 C-1.5546932 9.93875867 -1.5546932 9.93875867 -2.8125 6.875 C-8.79926562 5.59378417 -8.79926562 5.59378417 -14.4375 7.3125 C-16.546032 11.2420369 -15.85564145 13.56334867 -14.8125 17.875 C-11.62487635 20.00008244 -9.54737777 20.3770163 -5.8125 20.875 C-5.8125 22.195 -5.8125 23.515 -5.8125 24.875 C-19.63068182 23.05681818 -19.63068182 23.05681818 -22.8125 19.875 C-23.52815863 14.79219723 -23.97022799 9.89248846 -21.35546875 5.3359375 C-15.65116148 -1.26904987 -8.36234346 -3.34493738 0 0 Z " fill="#4C2716" transform="translate(119.8125,108.125)"/>
<path d="M0 0 C0.99 0 1.98 0 3 0 C3.268125 0.928125 3.53625 1.85625 3.8125 2.8125 C4.91148371 5.76240366 5.62418561 7.05615186 8 9 C8.99 8.67 9.98 8.34 11 8 C12.71275535 9.27358732 14.37667033 10.61423077 16 12 C19.49781947 14.21528566 22.94186393 14.43043704 27 15 C29.9375 16.0625 29.9375 16.0625 32 17 C32 18.32 32 19.64 32 21 C28.14155171 22.28614943 24.44158462 22.37171328 20.3984375 22.62109375 C19.60695313 22.74613281 18.81546875 22.87117188 18 23 C17.67 23.66 17.34 24.32 17 25 C11.02968261 24.70876501 8.105466 21.97185616 4 18 C4.33 17.34 4.66 16.68 5 16 C5.19795077 13.7244254 5.19795077 13.7244254 3.0625 11.375 C0.56875583 7.29432773 0.32492697 4.71144105 0 0 Z " fill="#E7E3DE" transform="translate(88,123)"/>
<path d="M0 0 C3.11898986 2.71911937 3.89409552 4.35280593 4.5625 8.4375 C3.79732736 13.28359339 2.70216842 14.77044883 -1 18 C-4.5 18.6875 -4.5 18.6875 -8 18 C-10.91368224 16.01621635 -12.63558769 14.58551319 -13.4453125 11.0625 C-13.66348199 7.22271696 -13.23217682 5.36374368 -11.125 2.0625 C-7.34085598 -1.61034566 -5.0691536 -1.2235888 0 0 Z " fill="#F9C165" transform="translate(65,73)"/>
<path d="M0 0 C8.58 0 17.16 0 26 0 C27.32 2.31 28.64 4.62 30 7 C26.59954386 9.07701343 24.11942613 9.18957368 20.17578125 9.01171875 C19.06525391 8.96466797 17.95472656 8.91761719 16.81054688 8.86914062 C15.65619141 8.80919922 14.50183594 8.74925781 13.3125 8.6875 C11.56356445 8.61499023 11.56356445 8.61499023 9.77929688 8.54101562 C1.14368704 8.14368704 1.14368704 8.14368704 0 7 C0 4.69 0 2.38 0 0 Z " fill="#7CA284" transform="translate(138,76)"/>
<path d="M0 0 C0.78052734 -0.029729 1.56105469 -0.05945801 2.36523438 -0.09008789 C6.29855414 -0.13018074 8.31149059 0.05392091 11.77734375 2.09765625 C13.75 4.3125 13.75 4.3125 14.0625 8.0625 C13.959375 9.135 13.85625 10.2075 13.75 11.3125 C15.07 11.6425 16.39 11.9725 17.75 12.3125 C9.31010242 13.15897096 0.97901207 13.44006916 -7.5 13.375 C-8.63824219 13.37048828 -9.77648437 13.36597656 -10.94921875 13.36132812 C-13.71620409 13.34970214 -16.48307158 13.33336431 -19.25 13.3125 C-15.80086018 10.52025182 -14.15565866 10.00606591 -9.6875 10.25 C-3.64191558 10.42103129 1.85984923 9.61111592 7.75 8.3125 C7.09 6.9925 6.43 5.6725 5.75 4.3125 C1.13 4.3125 -3.49 4.3125 -8.25 4.3125 C-8.25 3.6525 -8.25 2.9925 -8.25 2.3125 C-11.22 2.3125 -14.19 2.3125 -17.25 2.3125 C-17.58 3.3025 -17.91 4.2925 -18.25 5.3125 C-20.3125 6 -20.3125 6 -22.25 6.3125 C-20.5 2.4375 -20.5 2.4375 -18.25 1.3125 C-12.19108289 0.33874546 -6.12680727 0.12384234 0 0 Z " fill="#DE7273" transform="translate(76.25,50.6875)"/>
<path d="M0 0 C1.32 0 2.64 0 4 0 C4.33 13.86 4.66 27.72 5 42 C4.505 40.515 4.505 40.515 4 39 C3.5875 39.4125 3.175 39.825 2.75 40.25 C1.88375 41.11625 1.88375 41.11625 1 42 C0.360625 42.721875 -0.27875 43.44375 -0.9375 44.1875 C-3 46 -3 46 -7 46 C-7 45.34 -7 44.68 -7 44 C-6.34 44 -5.68 44 -5 44 C-4.34 42.02 -3.68 40.04 -3 38 C-2.34 38 -1.68 38 -1 38 C-0.67 25.46 -0.34 12.92 0 0 Z " fill="#CDE8EE" transform="translate(176,116)"/>
<path d="M0 0 C4.11289267 0.85685264 5.59686932 2.20235933 8 5.625 C7.92607229 9.91280723 7.3833231 12.05001534 5 15.625 C-1.67886179 17.13313008 -1.67886179 17.13313008 -5.4375 15.6875 C-7.81300083 12.5518389 -8.44080396 9.53143505 -8 5.625 C-5.60540961 2.14195943 -4.14822958 0.8642145 0 0 Z " fill="#E3D8D2" transform="translate(111,112.375)"/>
<path d="M0 0 C1.24007812 0.01289062 2.48015625 0.02578125 3.7578125 0.0390625 C6.875 0.375 6.875 0.375 8.875 2.375 C9.2890625 4.5390625 9.2890625 4.5390625 9.5 7 C9.57476562 7.81726562 9.64953125 8.63453125 9.7265625 9.4765625 C9.80003906 10.41628906 9.80003906 10.41628906 9.875 11.375 C6.64542502 11.06663058 3.41642745 10.75257181 0.1875 10.4375 C-0.72451172 10.35048828 -1.63652344 10.26347656 -2.57617188 10.17382812 C-3.90551758 10.04331055 -3.90551758 10.04331055 -5.26171875 9.91015625 C-6.07342529 9.831604 -6.88513184 9.75305176 -7.72143555 9.67211914 C-10.22301594 9.36288366 -12.66016441 8.89865768 -15.125 8.375 C-13.79166667 7.04166667 -12.45833333 5.70833333 -11.125 4.375 C-10.56554687 3.67632812 -10.00609375 2.97765625 -9.4296875 2.2578125 C-6.23921653 -0.34864006 -4.065601 -0.09336453 0 0 Z " fill="#E47174" transform="translate(161.125,53.625)"/>
<path d="M0 0 C-6.18630822 4.12420548 -14.28174804 3.32400177 -21.5 3.5625 C-22.75014893 3.6042334 -24.00029785 3.6459668 -25.28833008 3.68896484 C-36.08684117 4.02272565 -46.8843596 4.10874801 -57.6875 4.125 C-58.85925781 4.12888229 -58.85925781 4.12888229 -60.0546875 4.13284302 C-71.40294491 4.16254503 -82.67603048 3.73696874 -94 3 C-94.33 2.34 -94.66 1.68 -95 1 C-94.13939217 1.00333092 -94.13939217 1.00333092 -93.26139832 1.00672913 C-65.85642052 1.10775369 -38.4928383 1.07030524 -11.10351562 0.09375 C-7.39884658 -0.01815945 -3.70588673 -0.03762322 0 0 Z " fill="#A7B9C2" transform="translate(158,171)"/>
<path d="M0 0 C1.6254308 0.14095064 3.25034051 0.28792087 4.875 0.4375 C5.77992187 0.51871094 6.68484375 0.59992188 7.6171875 0.68359375 C10 1 10 1 12 2 C12 2.66 12 3.32 12 4 C12.66 4 13.32 4 14 4 C14.474375 4.66 14.94875 5.32 15.4375 6 C16.2109375 6.99 16.2109375 6.99 17 8 C17.99 8 18.98 8 20 8 C20 7.34 20 6.68 20 6 C23.28696233 5.20046862 24.71023192 4.90341064 28 6 C28.33 8.97 28.66 11.94 29 15 C27.37828761 15.38897161 25.75245075 15.76078298 24.125 16.125 C23.22007813 16.33382812 22.31515625 16.54265625 21.3828125 16.7578125 C20.59648438 16.83773437 19.81015625 16.91765625 19 17 C17.04783565 15.04783565 16.15173355 13.46800047 15 11 C14.34 12.32 13.68 13.64 13 15 C12.91363281 14.38511719 12.82726562 13.77023438 12.73828125 13.13671875 C11.90951709 7.9483549 11.90951709 7.9483549 8.75 3.9375 C5.67034048 2.88761607 3.23231738 2.77448949 0 3 C0 2.01 0 1.02 0 0 Z " fill="#789F81" transform="translate(56,70)"/>
<path d="M0 0 C0.99 0 1.98 0 3 0 C5.73292991 42.60442526 5.73292991 42.60442526 -1 52 C-4.21451269 53.60725635 -7.43612536 53.05748185 -11 53 C-11 52.67 -11 52.34 -11 52 C-9.01432292 51.70703125 -7.02864583 51.4140625 -5.04296875 51.12109375 C-2.39429074 49.6676127 -1.72211953 47.88118928 -0.61601257 45.14292908 C0.54252862 41.11270029 0.36422651 37.07246707 0.29296875 32.91015625 C0.28872391 31.96563095 0.28447906 31.02110565 0.28010559 30.04795837 C0.26340933 27.05250676 0.22577406 24.0577458 0.1875 21.0625 C0.17244146 19.02279622 0.1587551 16.98308183 0.14648438 14.94335938 C0.11353547 9.96197639 0.06181604 4.98110501 0 0 Z " fill="#BCCDD5" transform="translate(180,116)"/>
<path d="M0 0 C0.33 0 0.66 0 1 0 C0.67 8.25 0.34 16.5 0 25 C-1.65 25 -3.3 25 -5 25 C-5.02505615 25.85231201 -5.0501123 26.70462402 -5.07592773 27.58276367 C-5.17135569 30.76044966 -5.27057124 33.93798894 -5.37231445 37.11547852 C-5.4154884 38.48782776 -5.45717501 39.86022467 -5.49731445 41.23266602 C-5.55544392 43.21122068 -5.6194571 45.1895997 -5.68359375 47.16796875 C-5.72025146 48.35672607 -5.75690918 49.5454834 -5.79467773 50.77026367 C-5.97546411 53.61404847 -6.35809408 56.22906805 -7 59 C-7.33 59 -7.66 59 -8 59 C-9.23033751 53.53926507 -9.1839739 48.26226398 -9.1875 42.6875 C-9.19974609 41.68009766 -9.21199219 40.67269531 -9.22460938 39.63476562 C-9.23841212 32.57236165 -9.00128145 25.11960692 -5 19 C-4.01 18.34 -3.02 17.68 -2 17 C-1.4547378 14.07832766 -1.07321151 11.32175764 -0.8125 8.375 C-0.73064453 7.57320313 -0.64878906 6.77140625 -0.56445312 5.9453125 C-0.36403849 3.96474429 -0.1804193 1.98248968 0 0 Z " fill="#ADCAD5" transform="translate(42,71)"/>
<path d="M0 0 C0.99 0.33 1.98 0.66 3 1 C3.33 9.91 3.66 18.82 4 28 C1 27 1 27 -0.67578125 24.5234375 C-2.35258374 20.06185685 -2.33407499 16.33794976 -2.1875 11.625 C-2.17396484 10.79355469 -2.16042969 9.96210938 -2.14648438 9.10546875 C-2.11139059 7.07002934 -2.05759228 5.03492709 -2 3 C-1.34 3 -0.68 3 0 3 C0 2.01 0 1.02 0 0 Z " fill="#99CDED" transform="translate(39,123)"/>
<path d="M0 0 C0.33 0 0.66 0 1 0 C1 11.88 1 23.76 1 36 C-2.83147984 36.95786996 -6.02043783 37.19975875 -9.953125 37.31640625 C-10.61334656 37.33718735 -11.27356812 37.35796844 -11.95379639 37.37937927 C-14.05243015 37.44450147 -16.15118372 37.50358502 -18.25 37.5625 C-19.67709547 37.60572079 -21.10417905 37.6493362 -22.53125 37.69335938 C-26.02070722 37.80014411 -29.51029753 37.90151566 -33 38 C-33.19698486 37.45730469 -33.39396973 36.91460937 -33.59692383 36.35546875 C-33.86013428 35.64003906 -34.12334473 34.92460938 -34.39453125 34.1875 C-34.65339111 33.47980469 -34.91225098 32.77210937 -35.17895508 32.04296875 C-36.19429196 29.51655215 -37.50817847 27.27325186 -39 25 C-38.01 25 -37.02 25 -36 25 C-33.19611275 28.5460927 -31.53027795 31.4926374 -31 36 C-30.40719238 35.9285376 -29.81438477 35.8570752 -29.20361328 35.78344727 C-22.73588996 35.06264298 -16.37792245 34.87860993 -9.875 34.9375 C-4.986875 34.9684375 -4.986875 34.9684375 0 35 C0 23.45 0 11.9 0 0 Z " fill="#6CA19C" transform="translate(181,75)"/>
<path d="M0 0 C0.33 0 0.66 0 1 0 C1.01981934 0.63502441 1.03963867 1.27004883 1.06005859 1.92431641 C1.15581122 4.82493326 1.26528546 7.72487905 1.375 10.625 C1.42140625 12.12353516 1.42140625 12.12353516 1.46875 13.65234375 C1.67239148 18.77732101 1.98611183 23.20268917 4 28 C4.66 28 5.32 28 6 28 C6 18.76 6 9.52 6 0 C6.33 0 6.66 0 7 0 C7.74984705 4.00091404 8.1195296 7.76749517 8.09765625 11.8359375 C8.09443359 12.89941406 8.09121094 13.96289062 8.08789062 15.05859375 C8.07951172 16.15300781 8.07113281 17.24742187 8.0625 18.375 C8.05798828 19.49261719 8.05347656 20.61023438 8.04882812 21.76171875 C8.03709244 24.50786804 8.02067363 27.25390586 8 30 C3.16601562 29.19042969 3.16601562 29.19042969 1.671875 27.4765625 C1.36765625 26.86554688 1.0634375 26.25453125 0.75 25.625 C0.43546875 25.01914063 0.1209375 24.41328125 -0.203125 23.7890625 C-3.60492949 16.15167791 -2.34779028 7.77705531 0 0 Z " fill="#8CAEC2" transform="translate(36,122)"/>
<path d="M0 0 C3.11898986 2.71911937 3.89409552 4.35280593 4.5625 8.4375 C3.79732736 13.28359339 2.70216842 14.77044883 -1 18 C-4.5 18.6875 -4.5 18.6875 -8 18 C-10.91368224 16.01621635 -12.63558769 14.58551319 -13.4453125 11.0625 C-13.66348199 7.22271696 -13.23217682 5.36374368 -11.125 2.0625 C-7.34085598 -1.61034566 -5.0691536 -1.2235888 0 0 Z M-6 1 C-6.33 1.66 -6.66 2.32 -7 3 C-9.0625 4.125 -9.0625 4.125 -11 5 C-11 7.64 -11 10.28 -11 13 C-8.525 13.495 -8.525 13.495 -6 14 C-6 14.66 -6 15.32 -6 16 C-4.35 16 -2.7 16 -1 16 C-1 15.34 -1 14.68 -1 14 C-0.01 14 0.98 14 2 14 C2.28900646 8.36130698 2.28900646 8.36130698 0.8125 3 C-0.85597154 0.71782146 -0.85597154 0.71782146 -3.6875 0.6875 C-4.8321875 0.8421875 -4.8321875 0.8421875 -6 1 Z " fill="#E2C782" transform="translate(65,73)"/>
<path d="M0 0 C0.99 0 1.98 0 3 0 C2.95359375 1.08796875 2.9071875 2.1759375 2.859375 3.296875 C2.50373058 15.18924443 3.48252506 25.64511424 11.2734375 35.25390625 C13.75658399 37.76514263 16.50994953 39.7471393 19.4609375 41.67578125 C19.96882813 42.11277344 20.47671875 42.54976562 21 43 C21 43.99 21 44.98 21 46 C17 46 17 46 15.296875 44.5390625 C14.78640625 43.90742188 14.2759375 43.27578125 13.75 42.625 C13.22921875 41.99851563 12.7084375 41.37203125 12.171875 40.7265625 C11 39 11 39 11 37 C10.01 37 9.02 37 8 37 C7.7525 36.29875 7.505 35.5975 7.25 34.875 C6.08931291 31.90713038 6.08931291 31.90713038 4 29.3125 C-1.30843677 20.5204016 -0.22150664 9.91857502 0 0 Z " fill="#C7D9E0" transform="translate(72,113)"/>
<path d="M0 0 C0.33 0.66 0.66 1.32 1 2 C0.67 2.99 0.34 3.98 0 5 C-1.32 5 -2.64 5 -4 5 C-3.01 6.485 -3.01 6.485 -2 8 C-1.61500109 9.65549531 -1.27206865 11.3222433 -1 13 C0.32 12.34 1.64 11.68 3 11 C3 11.66 3 12.32 3 13 C1.01739574 14.68732277 -0.9832342 16.35366057 -3 18 C-3.33 18.66 -3.66 19.32 -4 20 C-4.99 20 -5.98 20 -7 20 C-7 19.34 -7 18.68 -7 18 C-6.34 17.67 -5.68 17.34 -5 17 C-4.31527335 15.11235097 -4.31527335 15.11235097 -3.875 12.9375 C-3.70742187 12.20402344 -3.53984375 11.47054687 -3.3671875 10.71484375 C-3.24601562 10.14894531 -3.12484375 9.58304688 -3 9 C-4.32 8.67 -5.64 8.34 -7 8 C-7.33 9.65 -7.66 11.3 -8 13 C-9.98 13.33 -11.96 13.66 -14 14 C-14.4021875 15.36125 -14.4021875 15.36125 -14.8125 16.75 C-15.89576294 19.71471963 -16.98359457 21.6169754 -19 24 C-17.47909029 14.37896444 -11.73491574 8.19129261 -4.171875 2.49609375 C-2 1 -2 1 0 0 Z " fill="#45291A" transform="translate(95,89)"/>
<path d="M0 0 C0.99 0 1.98 0 3 0 C3 10.89 3 21.78 3 33 C2.01 33 1.02 33 0 33 C0 22.11 0 11.22 0 0 Z " fill="#F4FDFE" transform="translate(176,116)"/>
<path d="M0 0 C7.92 0 15.84 0 24 0 C24 1.32 24 2.64 24 4 C16.08 4 8.16 4 0 4 C0 2.68 0 1.36 0 0 Z " fill="#F1C679" transform="translate(139,77)"/>
<path d="M0 0 C-4.88738696 3.25825797 -10.03369183 3.13422358 -15.7890625 3.31640625 C-17.06007812 3.35830078 -18.33109375 3.40019531 -19.640625 3.44335938 C-21.61289063 3.50233398 -21.61289063 3.50233398 -23.625 3.5625 C-24.96094895 3.60576763 -26.29688665 3.64938433 -27.6328125 3.69335938 C-37.21168155 4 -37.21168155 4 -42 4 C-42.33 3.01 -42.66 2.02 -43 1 C-38.16198967 0.8560845 -33.32393686 0.71372522 -28.48583984 0.57275391 C-26.84292389 0.52467014 -25.20001991 0.47617489 -23.55712891 0.42724609 C-21.18395029 0.35664151 -18.81073127 0.28755922 -16.4375 0.21875 C-15.71320801 0.19687622 -14.98891602 0.17500244 -14.24267578 0.15246582 C-9.49309465 0.01664638 -4.75155127 -0.01870689 0 0 Z " fill="#B1C2C8" transform="translate(158,171)"/>
<path d="M0 0 C1.32 0.66 2.64 1.32 4 2 C4 2.66 4 3.32 4 4 C4.99 3.67 5.98 3.34 7 3 C8.42944945 5.35438733 9.08661261 6.48032433 8.625 9.25 C8.41875 9.8275 8.2125 10.405 8 11 C7.34 11 6.68 11 6 11 C5.67 10.34 5.34 9.68 5 9 C3.68 9 2.36 9 1 9 C0.67 9.66 0.34 10.32 0 11 C-1.32 10.34 -2.64 9.68 -4 9 C-3.6875 5.625 -3.6875 5.625 -3 2 C-2.01 1.34 -1.02 0.68 0 0 Z " fill="#E0DAD8" transform="translate(107,114)"/>
<path d="M0 0 C0.66 0.33 1.32 0.66 2 1 C1.505 1.495 1.01 1.99 0.5 2.5 C-1.60434526 6.0072421 -1.7205897 9.00400256 -1 13 C0.39685006 15.6469872 0.39685006 15.6469872 3 17 C6.45728358 17.75011367 6.45728358 17.75011367 10 17 C12.93973281 14.64581624 12.93973281 14.64581624 15 12 C14.50153711 15.68862535 13.9758353 17.68546144 11 20 C7.93946002 21.93834199 5.60275975 22.61510532 2 22 C-1.04575642 19.43879574 -2.73506553 17.79480342 -4 14 C-4.39712283 8.73812253 -3.70025275 5.53642461 -1 1 C-0.67 0.67 -0.34 0.34 0 0 Z " fill="#7CA789" transform="translate(54,73)"/>
<path d="M0 0 C2.97 0 5.94 0 9 0 C9.33 0.99 9.66 1.98 10 3 C8.35 2.67 6.7 2.34 5 2 C5 2.66 5 3.32 5 4 C3.02 4.66 1.04 5.32 -1 6 C-1.33 7.65 -1.66 9.3 -2 11 C2.95 11 7.9 11 13 11 C13 11.33 13 11.66 13 12 C7.06 12.33 1.12 12.66 -5 13 C-5 10.03 -5 7.06 -5 4 C-3.68 3.34 -2.36 2.68 -1 2 C-0.67 1.34 -0.34 0.68 0 0 Z " fill="#DD6F70" transform="translate(59,53)"/>
<path d="M0 0 C4.91575894 4.91575894 3.08115961 15.72621998 3.09765625 22.38671875 C3.09512568 25.82037662 3.07944269 29.25388773 3.0625 32.6875 C3.05747418 34.4680977 3.05291319 36.24869677 3.04882812 38.02929688 C3.03791 42.35289909 3.02070521 46.67643403 3 51 C2.67 51 2.34 51 2 51 C1.505 53.475 1.505 53.475 1 56 C0.67 56 0.34 56 0 56 C0 50.72 0 45.44 0 40 C-0.66 39.67 -1.32 39.34 -2 39 C-1.01 39 -0.02 39 1 39 C0.67 26.13 0.34 13.26 0 0 Z " fill="#CCE0E3" transform="translate(181,72)"/>
<path d="M0 0 C6.6 0 13.2 0 20 0 C20 1.32 20 2.64 20 4 C13.73 4 7.46 4 1 4 C0.67 2.68 0.34 1.36 0 0 Z " fill="#EAF9FD" transform="translate(58,165)"/>
<path d="M0 0 C0.80566406 -0.01297119 1.61132812 -0.02594238 2.44140625 -0.03930664 C4.48316843 -0.04255097 6.52444807 0.06442419 8.5625 0.1875 C9.2225 0.8475 9.8825 1.5075 10.5625 2.1875 C4.21426798 4.49594801 -1.73231414 4.38568283 -8.4375 4.1875 C-8.4375 3.5275 -8.4375 2.8675 -8.4375 2.1875 C-11.4075 2.1875 -14.3775 2.1875 -17.4375 2.1875 C-17.7675 3.1775 -18.0975 4.1675 -18.4375 5.1875 C-20.5 5.875 -20.5 5.875 -22.4375 6.1875 C-20.6875 2.3125 -20.6875 2.3125 -18.4375 1.1875 C-12.29917057 0.20098277 -6.20489982 0.05461195 0 0 Z " fill="#D19397" transform="translate(76.4375,50.8125)"/>
<path d="M0 0 C0.33 0.99 0.66 1.98 1 3 C-6.53448276 8.07758621 -6.53448276 8.07758621 -9.625 7.5625 C-10.40875 7.376875 -11.1925 7.19125 -12 7 C-12.33 7.66 -12.66 8.32 -13 9 C-13.33 8.67 -13.66 8.34 -14 8 C-16.01964199 7.92755947 -18.04167124 7.91622812 -20.0625 7.9375 C-21.16722656 7.94652344 -22.27195312 7.95554688 -23.41015625 7.96484375 C-24.26480469 7.97644531 -25.11945313 7.98804688 -26 8 C-26 7.34 -26 6.68 -26 6 C-25.02160156 5.90203125 -24.04320313 5.8040625 -23.03515625 5.703125 C-16.10606295 4.91278594 -9.90286171 4.07501735 -3.63671875 0.8046875 C-2 0 -2 0 0 0 Z " fill="#CAD8E1" transform="translate(133,156)"/>
<path d="M0 0 C0.99 0 1.98 0 3 0 C3.268125 0.886875 3.53625 1.77375 3.8125 2.6875 C4.93083742 5.80707281 6.077202 8.3080828 8 11 C8.99 11.33 9.98 11.66 11 12 C12.1875 14.5625 12.1875 14.5625 13 17 C8.77447992 16.80346418 7.29778317 16.29778317 4.25 13.25 C1.101205 8.70174056 -0.31750422 5.55632391 0 0 Z " fill="#F7FAF9" transform="translate(88,123)"/>
<path d="M0 0 C0.33 0 0.66 0 1 0 C1.99 3.63 2.98 7.26 4 11 C4.99 11 5.98 11 7 11 C8.67099977 11.31088368 10.33871537 11.64080332 12 12 C13 15.875 13 15.875 13 17 C14.65 17.33 16.3 17.66 18 18 C18 18.33 18 18.66 18 19 C13.45760196 19.31326883 10.8888925 19.42735216 6.75 17.4375 C2.98796076 14.10296522 0.31459219 10.89729263 -0.2421875 5.76953125 C-0.24900116 3.84467259 -0.13474727 1.92014855 0 0 Z " fill="#ACC2C8" transform="translate(44,153)"/>
<path d="M0 0 C1.26328125 0.03609375 2.5265625 0.0721875 3.828125 0.109375 C5.27445313 0.17898437 5.27445313 0.17898437 6.75 0.25 C7.41 1.57 8.07 2.89 8.75 4.25 C6.11 4.25 3.47 4.25 0.75 4.25 C0.75 3.59 0.75 2.93 0.75 2.25 C-1.89 2.25 -4.53 2.25 -7.25 2.25 C-7.58 3.9 -7.91 5.55 -8.25 7.25 C-7.26 7.58 -6.27 7.91 -5.25 8.25 C-5.971875 8.064375 -6.69375 7.87875 -7.4375 7.6875 C-10.37826973 7.23004693 -12.39103058 7.51483643 -15.25 8.25 C-13.91666667 6.91666667 -12.58333333 5.58333333 -11.25 4.25 C-10.693125 3.54875 -10.13625 2.8475 -9.5625 2.125 C-6.3298039 -0.49610495 -4.09858226 -0.15179934 0 0 Z " fill="#C5908A" transform="translate(161.25,53.75)"/>
<path d="M0 0 C0.33 2.64 0.66 5.28 1 8 C-1.97 8.66 -4.94 9.32 -8 10 C-8.33 9.01 -8.66 8.02 -9 7 C-9.66 6.67 -10.32 6.34 -11 6 C-9.92781799 4.98805294 -8.84173622 3.99081943 -7.75 3 C-7.14671875 2.443125 -6.5434375 1.88625 -5.921875 1.3125 C-4 0 -4 0 0 0 Z " fill="#53240B" transform="translate(137,144)"/>
<path d="M0 0 C0.33 0 0.66 0 1 0 C1 2.97 1 5.94 1 9 C2.32 8.67 3.64 8.34 5 8 C7.08234592 7.93256652 9.16668557 7.91485528 11.25 7.9375 C12.32765625 7.94652344 13.4053125 7.95554687 14.515625 7.96484375 C15.33546875 7.97644531 16.1553125 7.98804687 17 8 C17 8.66 17 9.32 17 10 C15.92621094 10.04898438 14.85242188 10.09796875 13.74609375 10.1484375 C12.30987358 10.22353398 10.87367681 10.29907876 9.4375 10.375 C8.73302734 10.4059375 8.02855469 10.436875 7.30273438 10.46875 C2.58704259 10.72952558 -1.50385496 11.54658123 -6 13 C-6.66 12.34 -7.32 11.68 -8 11 C-6.8125 9.5 -6.8125 9.5 -5 8 C-2.3125 7.8125 -2.3125 7.8125 0 8 C0 5.36 0 2.72 0 0 Z " fill="#99BCB5" transform="translate(53,57)"/>
<path d="M0 0 C4.41609239 0.36197479 6.43375238 1.51061173 9.8125 4.3125 C9.8125 4.9725 9.8125 5.6325 9.8125 6.3125 C8.6884375 5.98507813 7.564375 5.65765625 6.40625 5.3203125 C1.66519459 4.13504865 -2.82513058 4.08455081 -7.6875 4.1875 C-8.50992188 4.19652344 -9.33234375 4.20554687 -10.1796875 4.21484375 C-12.18242083 4.23813135 -14.18500154 4.27399041 -16.1875 4.3125 C-15.8575 3.6525 -15.5275 2.9925 -15.1875 2.3125 C-12.71875 1.93359375 -12.71875 1.93359375 -9.6875 1.75 C-5.91707629 1.51191912 -3.54141902 0.34719794 0 0 Z " fill="#78B1A2" transform="translate(118.1875,82.6875)"/>
<path d="M0 0 C1.32 0.66 2.64 1.32 4 2 C4 4.31 4 6.62 4 9 C5.32 9.33 6.64 9.66 8 10 C0.64424835 10.70776992 -6.6094524 11.14715692 -14 11 C-14 10.67 -14 10.34 -14 10 C-11.36 10 -8.72 10 -6 10 C-6 9.34 -6 8.68 -6 8 C-3.69 8 -1.38 8 1 8 C1.08226668 4.95613276 0.97608217 2.92824652 0 0 Z " fill="#A07372" transform="translate(86,53)"/>
<path d="M0 0 C3.63 0 7.26 0 11 0 C10.01 0.66 9.02 1.32 8 2 C8 2.99 8 3.98 8 5 C1.375 7.125 1.375 7.125 -2 6 C-1.01 5.67 -0.02 5.34 1 5 C0.67 3.35 0.34 1.7 0 0 Z " fill="#E0E1DF" transform="translate(107,98)"/>
<path d="M0 0 C0.99 0 1.98 0 3 0 C4.4606285 2.64738916 5 3.89448334 5 7 C6.32 7.33 7.64 7.66 9 8 C9 9.32 9 10.64 9 12 C6.6875 11.8125 6.6875 11.8125 4 11 C1.23803936 7.5475492 0.50486259 4.34181831 0 0 Z " fill="#E9FBFE" transform="translate(47,154)"/>
<path d="M0 0 C-3.40712181 3.97497544 -7.32760855 5.86793788 -12 8 C-13.32 6.68 -14.64 5.36 -16 4 C-14.68 4.33 -13.36 4.66 -12 5 C-11.67 4.01 -11.34 3.02 -11 2 C-7.24092359 0.37676246 -4.07913787 -0.23994929 0 0 Z " fill="#512D22" transform="translate(137,152)"/>
<path d="M0 0 C0.66 0 1.32 0 2 0 C3.81361894 2.72042842 4.3698138 3.94387576 5 7 C5.17660156 7.85078125 5.35320312 8.7015625 5.53515625 9.578125 C5.70917969 10.45984375 5.88320312 11.3415625 6.0625 12.25 C6.23910156 13.14203125 6.41570312 14.0340625 6.59765625 14.953125 C6.73042969 15.62859375 6.86320312 16.3040625 7 17 C6.01 16.67 5.02 16.34 4 16 C2.83203125 13.41796875 2.83203125 13.41796875 1.8125 10.1875 C1.46832031 9.12917969 1.12414062 8.07085937 0.76953125 6.98046875 C0 4 0 4 0 0 Z " fill="#45281C" transform="translate(74,126)"/>
<path d="M0 0 C0.66 0 1.32 0 2 0 C1.70673279 3.81247372 1.49869932 6.3293354 -0.8125 9.4375 C-3 11 -3 11 -7 11 C-7 10.34 -7 9.68 -7 9 C-6.34 9 -5.68 9 -5 9 C-4.34 7.02 -3.68 5.04 -3 3 C-2.34 3 -1.68 3 -1 3 C-0.67 2.01 -0.34 1.02 0 0 Z " fill="#EBFBFE" transform="translate(176,151)"/>
<path d="M0 0 C0.7115625 -0.00386719 1.423125 -0.00773437 2.15625 -0.01171875 C5.57538017 -0.00533978 8.73293006 0.05299268 12 1.125 C12 1.785 12 2.445 12 3.125 C10.02 3.125 8.04 3.125 6 3.125 C6 2.465 6 1.805 6 1.125 C4.41590006 1.23987748 2.83271037 1.36734508 1.25 1.5 C0.36828125 1.56960937 -0.5134375 1.63921875 -1.421875 1.7109375 C-4.00846629 2.12635974 -5.70358583 2.9184095 -8 4.125 C-10.75 4.25 -10.75 4.25 -13 4.125 C-12.67 3.135 -12.34 2.145 -12 1.125 C-8.28409013 -0.49142079 -3.98612772 -0.02166374 0 0 Z " fill="#3B2F25" transform="translate(112,85.875)"/>
<path d="M0 0 C1.67542976 0.28604898 3.34385343 0.61781233 5 1 C5.625 3.375 5.625 3.375 6 6 C5.34 6.66 4.68 7.32 4 8 C1.375 7.625 1.375 7.625 -1 7 C-1.04254356 5.00045254 -1.04080783 2.99958364 -1 1 C-0.67 0.67 -0.34 0.34 0 0 Z " fill="#DBC788" transform="translate(76,77)"/>
<path d="M0 0 C1.65 0 3.3 0 5 0 C5 0.66 5 1.32 5 2 C4.34 2 3.68 2 3 2 C2.731875 3.134375 2.46375 4.26875 2.1875 5.4375 C1.795625 6.613125 1.40375 7.78875 1 9 C0.01 9.33 -0.98 9.66 -2 10 C-3.32 8.35 -4.64 6.7 -6 5 C-4.68 5.33 -3.36 5.66 -2 6 C-2.99 5.01 -3.98 4.02 -5 3 C-3.35 2.67 -1.7 2.34 0 2 C0 1.34 0 0.68 0 0 Z " fill="#452112" transform="translate(133,96)"/>
<path d="M0 0 C0 0.33 0 0.66 0 1 C-0.70125 1.02578125 -1.4025 1.0515625 -2.125 1.078125 C-8.79612902 1.4769425 -13.19413198 2.72760166 -19 6 C-19.66 6 -20.32 6 -21 6 C-21 5.34 -21 4.68 -21 4 C-14.05158446 -1.09550473 -8.39681756 -2.03559214 0 0 Z " fill="#79BEAF" transform="translate(114,84)"/>
<path d="M0 0 C0 1.32 0 2.64 0 4 C-3.01490557 5.00496852 -5.04181692 5.10335303 -8.1875 5.0625 C-9.53908203 5.04896484 -9.53908203 5.04896484 -10.91796875 5.03515625 C-11.60503906 5.02355469 -12.29210937 5.01195312 -13 5 C-13 4.01 -13 3.02 -13 2 C-11.39658445 1.66307215 -9.79223445 1.33058907 -8.1875 1 C-7.29417969 0.814375 -6.40085937 0.62875 -5.48046875 0.4375 C-3 0 -3 0 0 0 Z " fill="#FAFAFC" transform="translate(120,140)"/>
<path d="M0 0 C0.33 1.65 0.66 3.3 1 5 C1.33 5 1.66 5 2 5 C2 8.3 2 11.6 2 15 C-1 14 -1 14 -2.25 12.0625 C-2.4975 11.381875 -2.745 10.70125 -3 10 C-2.67 9.34 -2.34 8.68 -2 8 C-2.28241883 5.6599583 -2.61250787 3.32495277 -3 1 C-1 0 -1 0 0 0 Z " fill="#9AC7E3" transform="translate(41,136)"/>
<path d="M0 0 C0.66 0 1.32 0 2 0 C1.67 3.96 1.34 7.92 1 12 C-0.32 11.34 -1.64 10.68 -3 10 C-3 8.35 -3 6.7 -3 5 C-3.99 4.67 -4.98 4.34 -6 4 C-4.68 4 -3.36 4 -2 4 C-1.34 2.68 -0.68 1.36 0 0 Z " fill="#E8E7E7" transform="translate(94,118)"/>
<path d="M0 0 C1.32 0.66 2.64 1.32 4 2 C2.68 3.32 1.36 4.64 0 6 C0.99 6.66 1.98 7.32 3 8 C2.67 8.66 2.34 9.32 2 10 C0.16384919 8.69144447 -1.66885789 7.37805538 -3.5 6.0625 C-4.5209375 5.33160156 -5.541875 4.60070312 -6.59375 3.84765625 C-7.3878125 3.23792969 -8.181875 2.62820312 -9 2 C-9 1.67 -9 1.34 -9 1 C-6.03 1.33 -3.06 1.66 0 2 C0 1.34 0 0.68 0 0 Z " fill="#7DB7A6" transform="translate(138,88)"/>
<path d="M0 0 C1.65 0 3.3 0 5 0 C5 3.63 5 7.26 5 11 C3.68 10.67 2.36 10.34 1 10 C1 8.68 1 7.36 1 6 C0.67 5.67 0.34 5.34 0 5 C-0.04063832 3.33382885 -0.042721 1.66611905 0 0 Z " fill="#99D6D2" transform="translate(176,99)"/>
<path d="M0 0 C0.99 0 1.98 0 3 0 C3 4.62 3 9.24 3 14 C2.01 14 1.02 14 0 14 C0 9.38 0 4.76 0 0 Z " fill="#DAFCFA" transform="translate(176,82)"/>
<path d="M0 0 C0.33 0 0.66 0 1 0 C1.33 2.31 1.66 4.62 2 7 C-4.6 6.34 -11.2 5.68 -18 5 C-17.67 3.68 -17.34 2.36 -17 1 C-17 1.99 -17 2.98 -17 4 C-16.505 3.835 -16.01 3.67 -15.5 3.5 C-11.96555911 2.79311182 -8.60309299 2.93994845 -5 3 C-5 3.66 -5 4.32 -5 5 C-3.35 5 -1.7 5 0 5 C-0.33 4.01 -0.66 3.02 -1 2 C-0.67 1.34 -0.34 0.68 0 0 Z " fill="#926563" transform="translate(169,58)"/>
<path d="M0 0 C2.97 0.33 5.94 0.66 9 1 C8.67 2.32 8.34 3.64 8 5 C8 4.01 8 3.02 8 2 C7.01 2 6.02 2 5 2 C5.33 2.886875 5.66 3.77375 6 4.6875 C6.91222143 7.70923347 7.18330958 9.88373706 7 13 C3.88352679 10.45015828 3.15811845 7.78318693 2 4 C1.34 2.68 0.68 1.36 0 0 Z " fill="#D2E6EC" transform="translate(42,152)"/>
<path d="M0 0 C0.66 0.33 1.32 0.66 2 1 C2.86302319 3.66098817 3.15753522 5.40486696 2.4375 8.125 C0.35445 10.84202174 -1.83029222 11.79551104 -5 13 C-7.375 12.6875 -7.375 12.6875 -9 12 C-8.071875 11.690625 -7.14375 11.38125 -6.1875 11.0625 C-1.76831801 8.2030293 -1.18366998 4.95272438 0 0 Z " fill="#7DC3B2" transform="translate(71,80)"/>
<path d="M0 0 C7.92 0 15.84 0 24 0 C24 1.32 24 2.64 24 4 C23.01 4 22.02 4 21 4 C21 3.01 21 2.02 21 1 C14.73 1 8.46 1 2 1 C2.33 1.99 2.66 2.98 3 4 C2.01 4 1.02 4 0 4 C0 2.68 0 1.36 0 0 Z " fill="#D1CB94" transform="translate(139,77)"/>
<path d="M0 0 C1.0625 1.875 1.0625 1.875 2 4 C1.67 4.66 1.34 5.32 1 6 C-1.5625 6.625 -1.5625 6.625 -4 7 C-4.268125 7.9075 -4.53625 8.815 -4.8125 9.75 C-5.89576294 12.71471963 -6.98359457 14.6169754 -9 17 C-8.41980707 13.01027827 -7.17789755 10.23127208 -5.0625 6.8125 C-4.53785156 5.95269531 -4.01320313 5.09289062 -3.47265625 4.20703125 C-2 2 -2 2 0 0 Z " fill="#3A2E1E" transform="translate(85,96)"/>
<path d="M0 0 C1.9375 0.8125 1.9375 0.8125 4 2 C5.2077558 5.62326739 4.54311128 6.64146369 3 10 C2.34 9.67 1.68 9.34 1 9 C1.33 7.35 1.66 5.7 2 4 C-0.31 4.33 -2.62 4.66 -5 5 C-5.33 4.34 -5.66 3.68 -6 3 C-5.195625 2.690625 -4.39125 2.38125 -3.5625 2.0625 C-1.10919595 1.23664655 -1.10919595 1.23664655 0 0 Z " fill="#583020" transform="translate(116,107)"/>
<path d="M0 0 C0.66 0 1.32 0 2 0 C2 0.66 2 1.32 2 2 C2.99 2.33 3.98 2.66 5 3 C4 6 4 6 0.9375 7.6875 C-0.031875 8.120625 -1.00125 8.55375 -2 9 C-2.66 8.34 -3.32 7.68 -4 7 C-3.34 7 -2.68 7 -2 7 C-2.33 6.01 -2.66 5.02 -3 4 C-2.34 4 -1.68 4 -1 4 C-0.67 2.68 -0.34 1.36 0 0 Z " fill="#562814" transform="translate(136,98)"/>
<path d="M0 0 C0.80824219 0.10183594 1.61648437 0.20367187 2.44921875 0.30859375 C3.06410156 0.39238281 3.67898437 0.47617188 4.3125 0.5625 C3.9825 1.5525 3.6525 2.5425 3.3125 3.5625 C-4.19519231 3.93173077 -4.19519231 3.93173077 -6.6875 2.0625 C-7.0175 1.5675 -7.3475 1.0725 -7.6875 0.5625 C-4.59271121 -0.46909626 -3.16118607 -0.41232862 0 0 Z " fill="#72C5B5" transform="translate(62.6875,67.4375)"/>
<path d="M0 0 C0.33 0 0.66 0 1 0 C1.56540084 9.61181435 1.56540084 9.61181435 -2 14 C-5.21451269 15.60725635 -8.43612536 15.05748185 -12 15 C-12 14.67 -12 14.34 -12 14 C-10.741875 13.814375 -9.48375 13.62875 -8.1875 13.4375 C-5.97189169 12.9598088 -5.97189169 12.9598088 -4 12 C-1.74647394 8.14719738 -0.66622518 4.3970862 0 0 Z " fill="#A3B4BA" transform="translate(181,154)"/>
<path d="M0 0 C0.99 0 1.98 0 3 0 C3.66 1.98 4.32 3.96 5 6 C6.65 6.33 8.3 6.66 10 7 C9.67 8.32 9.34 9.64 9 11 C5.7 8.03 2.4 5.06 -1 2 C-0.67 1.34 -0.34 0.68 0 0 Z " fill="#413027" transform="translate(82,145)"/>
<path d="M0 0 C1.875 0.25 1.875 0.25 4 1 C5.25 3.0625 5.25 3.0625 6 5 C4 8 4 8 3 9 C2.63239269 11.32817964 2.29758419 13.6618385 2 16 C1.67 16 1.34 16 1 16 C0.06597276 10.58264203 -0.20808081 7.19548425 2 2 C1.34 1.34 0.68 0.68 0 0 Z " fill="#411E0E" transform="translate(118,109)"/>
<path d="M0 0 C0.66 0 1.32 0 2 0 C2.33 1.65 2.66 3.3 3 5 C7.95 5.33 12.9 5.66 18 6 C18 6.33 18 6.66 18 7 C12.06 7.33 6.12 7.66 0 8 C0 5.36 0 2.72 0 0 Z " fill="#8E6463" transform="translate(54,58)"/>
<path d="M0 0 C0.33 0.99 0.66 1.98 1 3 C0.360625 3.5775 -0.27875 4.155 -0.9375 4.75 C-3.14175508 6.7682885 -3.14175508 6.7682885 -3.4375 9.125 C-3.623125 9.74375 -3.80875 10.3625 -4 11 C-6.5625 12.25 -6.5625 12.25 -9 13 C-9.66 12.34 -10.32 11.68 -11 11 C-10.37351563 10.45730469 -9.74703125 9.91460937 -9.1015625 9.35546875 C-8.28429687 8.64003906 -7.46703125 7.92460937 -6.625 7.1875 C-5.40683594 6.12595703 -5.40683594 6.12595703 -4.1640625 5.04296875 C-1.83816812 3.00018747 -1.83816812 3.00018747 0 0 Z " fill="#C2D5DB" transform="translate(144,144)"/>
<path d="M0 0 C2.05078125 0.03255208 4.1015625 0.06510417 6.15234375 0.09765625 C6.15234375 0.75765625 6.15234375 1.41765625 6.15234375 2.09765625 C7.14234375 2.42765625 8.13234375 2.75765625 9.15234375 3.09765625 C9.15234375 3.42765625 9.15234375 3.75765625 9.15234375 4.09765625 C6.18234375 4.09765625 3.21234375 4.09765625 0.15234375 4.09765625 C0.15234375 3.43765625 0.15234375 2.77765625 0.15234375 2.09765625 C-0.83765625 1.76765625 -1.82765625 1.43765625 -2.84765625 1.09765625 C-1.84765625 0.09765625 -1.84765625 0.09765625 0 0 Z " fill="#5D382E" transform="translate(106.84765625,93.90234375)"/>
<path d="M0 0 C4.04152406 0.23316485 6.33802764 0.4228959 9.4375 3.125 C11.37467868 6.68940876 11.45303038 8.99823161 11 13 C10.34 13.66 9.68 14.32 9 15 C8.86722656 14.30132812 8.73445313 13.60265625 8.59765625 12.8828125 C8.42105469 11.97273438 8.24445313 11.06265625 8.0625 10.125 C7.88847656 9.22007813 7.71445313 8.31515625 7.53515625 7.3828125 C7.10036299 5.00043683 7.10036299 5.00043683 6 3 C4.02111039 2.27306096 2.02045442 1.60183749 0 1 C0 0.67 0 0.34 0 0 Z " fill="#DFC78A" transform="translate(58,72)"/>
<path d="M0 0 C0.66 0.33 1.32 0.66 2 1 C2 1.66 2 2.32 2 3 C1.34 3 0.68 3 0 3 C0 3.66 0 4.32 0 5 C-1.6875 7.125 -1.6875 7.125 -4 9 C-6.75 9.25 -6.75 9.25 -9 9 C-9.33 8.01 -9.66 7.02 -10 6 C-7.69 5.34 -5.38 4.68 -3 4 C-3 3.01 -3 2.02 -3 1 C-2.01 0.67 -1.02 0.34 0 0 Z " fill="#D1CAC5" transform="translate(118,98)"/>
<path d="M0 0 C0.33 0.66 0.66 1.32 1 2 C-1.9076457 2.82791734 -4.54090519 3.16193659 -7.5625 3.1875 C-8.70912109 3.20876953 -8.70912109 3.20876953 -9.87890625 3.23046875 C-12 3 -12 3 -15 1 C-9.92928099 0.28832014 -5.11791642 -0.10662326 0 0 Z " fill="#4A312C" transform="translate(119,159)"/>
<path d="M0 0 C-1.65 0.33 -3.3 0.66 -5 1 C-5.33 2.65 -5.66 4.3 -6 6 C-7.32 5.34 -8.64 4.68 -10 4 C-9.67 2.35 -9.34 0.7 -9 -1 C-5.22102349 -2.0497157 -3.35080929 -2.10976881 0 0 Z " fill="#4A230E" transform="translate(105,150)"/>
<path d="M0 0 C5.94 1.485 5.94 1.485 12 3 C10.68 3.33 9.36 3.66 8 4 C8 4.66 8 5.32 8 6 C6.125 6.625 6.125 6.625 4 7 C3.34 6.34 2.68 5.68 2 5 C2 4.01 2 3.02 2 2 C1.34 2 0.68 2 0 2 C0 1.34 0 0.68 0 0 Z " fill="#79BFB2" transform="translate(68,72)"/>
<path d="M0 0 C-0.33 0.66 -0.66 1.32 -1 2 C-3.36328125 2.37890625 -3.36328125 2.37890625 -6.3125 2.5625 C-9.66758783 2.78199173 -12.76344731 3.06977939 -16 4 C-16 3.34 -16 2.68 -16 2 C-16.66 1.67 -17.32 1.34 -18 1 C-11.96445452 0.30739642 -6.07593562 -0.11251733 0 0 Z " fill="#8DB7B1" transform="translate(90,63)"/>
<path d="M0 0 C0.99 0 1.98 0 3 0 C2.67 6.27 2.34 12.54 2 19 C-0.52775351 15.20836973 -0.22443035 12.19125969 -0.125 7.8125 C-0.11597656 7.06291016 -0.10695313 6.31332031 -0.09765625 5.54101562 C-0.07412578 3.69387346 -0.03825561 1.84689588 0 0 Z " fill="#CEDCE9" transform="translate(72,113)"/>
<path d="M0 0 C0.33 0 0.66 0 1 0 C1.06058594 0.61488281 1.12117188 1.22976562 1.18359375 1.86328125 C1.26738281 2.67152344 1.35117188 3.47976562 1.4375 4.3125 C1.51871094 5.11300781 1.59992188 5.91351563 1.68359375 6.73828125 C1.95265693 9.16087179 1.95265693 9.16087179 3 12 C1.02 12.99 1.02 12.99 -1 14 C-2.15837573 10.52487282 -1.77265943 8.86329714 -1.0625 5.3125 C-0.86785156 4.31863281 -0.67320313 3.32476562 -0.47265625 2.30078125 C-0.31667969 1.54152344 -0.16070312 0.78226562 0 0 Z " fill="#D7C8C4" transform="translate(96,119)"/>
<path d="M0 0 C-0.33 2.64 -0.66 5.28 -1 8 C-3.62113708 8 -5.50935112 7.68707555 -8 7 C-7.01 6.67 -6.02 6.34 -5 6 C-5 5.34 -5 4.68 -5 4 C-1.35294118 0 -1.35294118 0 0 0 Z " fill="#6CCCC5" transform="translate(171,80)"/>
<path d="M0 0 C1.65 1.65 3.3 3.3 5 5 C4.34 5.66 3.68 6.32 3 7 C1.02 6.34 -0.96 5.68 -3 5 C-2 3 -2 3 0 0 Z " fill="#DFD8D1" transform="translate(130,105)"/>
<path d="M0 0 C6.75 -0.125 6.75 -0.125 9 1 C8.67 2.65 8.34 4.3 8 6 C6.66402348 5.19185349 5.331275 4.37836819 4 3.5625 C3.2575 3.11003906 2.515 2.65757813 1.75 2.19140625 C1.1725 1.79824219 0.595 1.40507813 0 1 C0 0.67 0 0.34 0 0 Z " fill="#DFD4D1" transform="translate(116,106)"/>
<path d="M0 0 C0 0.66 0 1.32 0 2 C-0.66 2 -1.32 2 -2 2 C-2 2.66 -2 3.32 -2 4 C-3.65 4 -5.3 4 -7 4 C-7.33 3.01 -7.66 2.02 -8 1 C-4.93251126 -0.86240388 -3.40254489 -1.2151946 0 0 Z " fill="#EBDEDB" transform="translate(106,100)"/>
<path d="M0 0 C1.485 0.99 1.485 0.99 3 2 C2.67 2.66 2.34 3.32 2 4 C1.92805131 6.88370333 1.90708292 9.74239664 1.9375 12.625 C1.94201172 13.42679688 1.94652344 14.22859375 1.95117188 15.0546875 C1.96296832 17.03649006 1.98090395 19.01825433 2 21 C1.34 21 0.68 21 0 21 C-0.19592461 17.68794116 -0.38032746 14.37534146 -0.5625 11.0625 C-0.61857422 10.11697266 -0.67464844 9.17144531 -0.73242188 8.19726562 C-0.78076172 7.29814453 -0.82910156 6.39902344 -0.87890625 5.47265625 C-0.9260376 4.64000244 -0.97316895 3.80734863 -1.02172852 2.94946289 C-1 1 -1 1 0 0 Z " fill="#83BEB9" transform="translate(44,68)"/>
<path d="M0 0 C1.52519276 0.08937803 3.04681929 0.24537146 4.5625 0.4375 C5.80193359 0.59025391 5.80193359 0.59025391 7.06640625 0.74609375 C7.70449219 0.82988281 8.34257813 0.91367188 9 1 C8.01 1.495 8.01 1.495 7 2 C6.67 2.99 6.34 3.98 6 5 C4.35 5 2.7 5 1 5 C0.34 3.68 -0.32 2.36 -1 1 C-0.67 0.67 -0.34 0.34 0 0 Z " fill="#CFE1E4" transform="translate(57,168)"/>
<path d="M0 0 C1.50433594 0.01353516 1.50433594 0.01353516 3.0390625 0.02734375 C3.80992188 0.03894531 4.58078125 0.05054688 5.375 0.0625 C5.375 0.3925 5.375 0.7225 5.375 1.0625 C3.725 1.3925 2.075 1.7225 0.375 2.0625 C0.375 2.3925 0.375 2.7225 0.375 3.0625 C-2.265 3.0625 -4.905 3.0625 -7.625 3.0625 C-7.625 2.4025 -7.625 1.7425 -7.625 1.0625 C-4.98041621 -0.25979189 -2.94738699 -0.03427194 0 0 Z " fill="#D1E8F6" transform="translate(71.625,168.9375)"/>
<path d="M0 0 C5.94 1.485 5.94 1.485 12 3 C12 3.33 12 3.66 12 4 C8.7 4.33 5.4 4.66 2 5 C1.34 3.35 0.68 1.7 0 0 Z " fill="#C5D5DA" transform="translate(95,158)"/>
<path d="M0 0 C1.96301592 3.50538557 2.95902388 7.13351728 4 11 C3.34 11.66 2.68 12.32 2 13 C1.46605821 11.5882217 0.94834896 10.17029756 0.4375 8.75 C0.14746094 7.96109375 -0.14257812 7.1721875 -0.44140625 6.359375 C-1.04522837 3.80896548 -0.8473932 2.44677771 0 0 Z " fill="#C3CFD5" transform="translate(74,130)"/>
<path d="M0 0 C1.98 0 3.96 0 6 0 C5.34 1.32 4.68 2.64 4 4 C3.01 4 2.02 4 1 4 C1 5.65 1 7.3 1 9 C0.67 9 0.34 9 0 9 C0 6.03 0 3.06 0 0 Z " fill="#B1D6E8" transform="translate(42,113)"/>
<path d="M0 0 C0.66 0 1.32 0 2 0 C1.67 1.98 1.34 3.96 1 6 C1.99 6.33 2.98 6.66 4 7 C3.278125 6.814375 2.55625 6.62875 1.8125 6.4375 C-1.12826973 5.98004693 -3.14103058 6.26483643 -6 7 C-5.071875 6.1028125 -5.071875 6.1028125 -4.125 5.1875 C-1.86323046 2.99188856 -1.86323046 2.99188856 0 0 Z " fill="#C9A2A1" transform="translate(152,55)"/>
<path d="M0 0 C0.66 0 1.32 0 2 0 C2.33 0.99 2.66 1.98 3 3 C-2.625 7 -2.625 7 -6 7 C-5.04882866 5.8274869 -4.08882991 4.66212985 -3.125 3.5 C-2.59132812 2.8503125 -2.05765625 2.200625 -1.5078125 1.53125 C-0.76144531 0.77328125 -0.76144531 0.77328125 0 0 Z " fill="#C4DCEA" transform="translate(131,156)"/>
<path d="M0 0 C3.63 0 7.26 0 11 0 C7.77208445 2.1519437 6.71599191 2.20086443 3 2 C3 2.66 3 3.32 3 4 C2.01 3.67 1.02 3.34 0 3 C0 2.01 0 1.02 0 0 Z " fill="#F3E5E2" transform="translate(107,98)"/>
<path d="M0 0 C1.65 0.33 3.3 0.66 5 1 C5 2.32 5 3.64 5 5 C2.5625 4.625 2.5625 4.625 0 4 C-0.33 3.34 -0.66 2.68 -1 2 C-0.67 1.34 -0.34 0.68 0 0 Z " fill="#DBF7FD" transform="translate(51,161)"/>
<path d="M0 0 C2.58926331 2.58926331 2.37398043 4.02705279 2.625 7.625 C2.69976562 8.62789062 2.77453125 9.63078125 2.8515625 10.6640625 C2.90054688 11.43492187 2.94953125 12.20578125 3 13 C2.01 13 1.02 13 0 13 C0 8.71 0 4.42 0 0 Z " fill="#EFE1DC" transform="translate(87,120)"/>
<path d="M0 0 C0.99 0 1.98 0 3 0 C4.6875 2 4.6875 2 6 4 C4.35 4.66 2.7 5.32 1 6 C-0.0625 4.125 -0.0625 4.125 -1 2 C-0.67 1.34 -0.34 0.68 0 0 Z " fill="#523324" transform="translate(98,114)"/>
<path d="M0 0 C1.98 0 3.96 0 6 0 C5.67 1.65 5.34 3.3 5 5 C4.34 5 3.68 5 3 5 C3 4.34 3 3.68 3 3 C2.01 2.67 1.02 2.34 0 2 C0 1.34 0 0.68 0 0 Z " fill="#E0D2CB" transform="translate(108,113)"/>
<path d="M0 0 C1.32 0.99 2.64 1.98 4 3 C4.66 2.67 5.32 2.34 6 2 C6 3.65 6 5.3 6 7 C4.02 6.34 2.04 5.68 0 5 C0 3.35 0 1.7 0 0 Z " fill="#E7E5E7" transform="translate(96,103)"/>
<path d="M0 0 C1.65 0 3.3 0 5 0 C5 0.66 5 1.32 5 2 C4.34 2 3.68 2 3 2 C2.67 3.32 2.34 4.64 2 6 C1.34 6 0.68 6 0 6 C-1.125 2.25 -1.125 2.25 0 0 Z " fill="#4E240C" transform="translate(133,96)"/>
<path d="M0 0 C0.66 0.33 1.32 0.66 2 1 C2 3.64 2 6.28 2 9 C0.35 9.33 -1.3 9.66 -3 10 C-2.01 9.67 -1.02 9.34 0 9 C-0.185625 8.2575 -0.37125 7.515 -0.5625 6.75 C-0.99203108 4.05009037 -0.85122974 2.55368923 0 0 Z " fill="#76B4AE" transform="translate(179,71)"/>
<path d="M0 0 C2.97 0 5.94 0 9 0 C9.33 0.99 9.66 1.98 10 3 C3.375 3.125 3.375 3.125 0 2 C0 1.34 0 0.68 0 0 Z " fill="#BD6563" transform="translate(59,53)"/>
<path d="M0 0 C1.11375 0.1546875 1.11375 0.1546875 2.25 0.3125 C-0.58430453 3.5667015 -2.43607774 4.8331753 -6.75 5.3125 C-3.42692308 0.38942308 -3.42692308 0.38942308 0 0 Z " fill="#3D2A21" transform="translate(134.75,151.6875)"/>
<path d="M0 0 C2.89932357 2.39509338 3.50168276 4.31245243 4 8 C3.01 8 2.02 8 1 8 C-0.42944945 5.64561267 -1.08661261 4.51967567 -0.625 1.75 C-0.41875 1.1725 -0.2125 0.595 0 0 Z " fill="#4F2F1E" transform="translate(84,127)"/>
<path d="M0 0 C0.66 0 1.32 0 2 0 C4 3 4 3 3.625 5.6875 C3.41875 6.450625 3.2125 7.21375 3 8 C2.34 8 1.68 8 1 8 C0.67 5.36 0.34 2.72 0 0 Z " fill="#492B27" transform="translate(74,126)"/>
<path d="M0 0 C1.22589844 0.01353516 1.22589844 0.01353516 2.4765625 0.02734375 C3.41628906 0.04474609 3.41628906 0.04474609 4.375 0.0625 C4.375 0.3925 4.375 0.7225 4.375 1.0625 C1.735 1.0625 -0.905 1.0625 -3.625 1.0625 C-3.955 2.0525 -4.285 3.0425 -4.625 4.0625 C-6.6875 4.75 -6.6875 4.75 -8.625 5.0625 C-6.51899199 0.39919656 -5.01778996 -0.07168271 0 0 Z " fill="#DFB5B1" transform="translate(62.625,51.9375)"/>
<path d="M0 0 C0.66 0 1.32 0 2 0 C4.5654594 2.5654594 4.54046087 4.47686668 5 8 C4.01 8 3.02 8 2 8 C0.23537317 4.91190305 0 3.76687864 0 0 Z " fill="#4F2206" transform="translate(77,128)"/>
<path d="M0 0 C-0.33 1.65 -0.66 3.3 -1 5 C-3 5 -3 5 -4.625 3.625 C-6 2 -6 2 -6 0 C-3.50907189 -1.24546405 -2.58919267 -0.7767578 0 0 Z " fill="#E4EAE9" transform="translate(116,120)"/>
<path d="M0 0 C0.33 1.32 0.66 2.64 1 4 C-0.90401138 5.90401138 -2.33425686 6.93520439 -5.046875 7.19921875 C-7.03233273 7.1886578 -9.0169914 7.09915043 -11 7 C-11 6.67 -11 6.34 -11 6 C-9.39125 5.9071875 -9.39125 5.9071875 -7.75 5.8125 C-3.86468039 5.33854041 -3.86468039 5.33854041 -1.5625 2.4375 C-1.046875 1.633125 -0.53125 0.82875 0 0 Z " fill="#758B64" transform="translate(68,85)"/>
<path d="M0 0 C1.65 0 3.3 0 5 0 C4.34 1.32 3.68 2.64 3 4 C1.68 4 0.36 4 -1 4 C-0.67 2.68 -0.34 1.36 0 0 Z " fill="#64CBC4" transform="translate(67,68)"/>
<path d="M0 0 C0.66 0.66 1.32 1.32 2 2 C1.625 4.625 1.625 4.625 1 7 C0.34 7 -0.32 7 -1 7 C-1.33 7.99 -1.66 8.98 -2 10 C-3 8 -3 8 -2.44140625 6.0546875 C-2.15136719 5.33539063 -1.86132812 4.61609375 -1.5625 3.875 C-1.27503906 3.15054688 -0.98757812 2.42609375 -0.69140625 1.6796875 C-0.46324219 1.12539062 -0.23507813 0.57109375 0 0 Z " fill="#BECBD0" transform="translate(148,134)"/>
<path d="M0 0 C0.66 0.99 1.32 1.98 2 3 C1.01 4.32 0.02 5.64 -1 7 C-2.32 6.67 -3.64 6.34 -5 6 C-3.35 4.02 -1.7 2.04 0 0 Z " fill="#7DBAAA" transform="translate(81,97)"/>
<path d="M0 0 C4.875 4.75 4.875 4.75 6 7 C5.01 7.33 4.02 7.66 3 8 C2.67 7.01 2.34 6.02 2 5 C1.34 4.67 0.68 4.34 0 4 C0 2.68 0 1.36 0 0 Z " fill="#3E3426" transform="translate(138,96)"/>
<path d="M0 0 C2.31 0 4.62 0 7 0 C6.67 0.99 6.34 1.98 6 3 C5.21625 3.144375 4.4325 3.28875 3.625 3.4375 C1.03578982 3.87798925 1.03578982 3.87798925 -1 5 C-0.67 3.35 -0.34 1.7 0 0 Z " fill="#542D1E" transform="translate(94,98)"/>
<path d="M0 0 C0.66 1.65 1.32 3.3 2 5 C0.02 5 -1.96 5 -4 5 C-4 3.68 -4 2.36 -4 1 C-2 0 -2 0 0 0 Z " fill="#6CC0B6" transform="translate(50,69)"/>
<path d="M0 0 C2.64 0.33 5.28 0.66 8 1 C7.67 1.66 7.34 2.32 7 3 C4.69 3 2.38 3 0 3 C0 2.01 0 1.02 0 0 Z " fill="#A9BCC2" transform="translate(160,168)"/>
<path d="M0 0 C1.98 0 3.96 0 6 0 C4.515 2.475 4.515 2.475 3 5 C2.01 4.34 1.02 3.68 0 3 C0 2.01 0 1.02 0 0 Z " fill="#503021" transform="translate(120,129)"/>
<path d="M0 0 C0 1.98 0 3.96 0 6 C-0.99 6 -1.98 6 -3 6 C-3.33 5.01 -3.66 4.02 -4 3 C-1.125 0 -1.125 0 0 0 Z " fill="#5E3C2E" transform="translate(128,119)"/>
<path d="M0 0 C2.97 0.495 2.97 0.495 6 1 C5.625 2.9375 5.625 2.9375 5 5 C4.01 5.495 4.01 5.495 3 6 C2.67 4.68 2.34 3.36 2 2 C1.34 2 0.68 2 0 2 C0 1.34 0 0.68 0 0 Z " fill="#45220D" transform="translate(143,113)"/>
<path d="M0 0 C3.65316671 1.24976756 4.78065836 1.67098753 7 5 C5.02 5 3.04 5 1 5 C0.67 3.35 0.34 1.7 0 0 Z " fill="#382A18" transform="translate(130,91)"/>
<path d="M0 0 C1.65 1.65 3.3 3.3 5 5 C2.125 5.125 2.125 5.125 -1 5 C-1.66 4.34 -2.32 3.68 -3 3 C-2.01 2.01 -1.02 1.02 0 0 Z " fill="#76C9CB" transform="translate(72,69)"/>
<path d="M0 0 C0.99 0.99 1.98 1.98 3 3 C2.01 3.495 2.01 3.495 1 4 C0.67 4.66 0.34 5.32 0 6 C-0.99 5.34 -1.98 4.68 -3 4 C-2.67 3.01 -2.34 2.02 -2 1 C-1.34 0.67 -0.68 0.34 0 0 Z " fill="#E8E8EB" transform="translate(107,119)"/>
<path d="M0 0 C1.5 1.375 1.5 1.375 3 3 C3 3.66 3 4.32 3 5 C1.68 5.33 0.36 5.66 -1 6 C-1.042721 4.33388095 -1.04063832 2.66617115 -1 1 C-0.67 0.67 -0.34 0.34 0 0 Z " fill="#4C2C1B" transform="translate(124,113)"/>
<path d="M0 0 C0.99 0.33 1.98 0.66 3 1 C2.67 2.32 2.34 3.64 2 5 C0.68 5 -0.64 5 -2 5 C-2 4.01 -2 3.02 -2 2 C-1.34 2 -0.68 2 0 2 C0 1.34 0 0.68 0 0 Z " fill="#522A1E" transform="translate(85,112)"/>
<path d="M0 0 C2.64 0 5.28 0 8 0 C7.67 0.66 7.34 1.32 7 2 C4.35139573 2.59355614 1.70802678 2.74209269 -1 3 C-0.67 2.01 -0.34 1.02 0 0 Z " fill="#432C1D" transform="translate(100,87)"/>
<path d="M0 0 C0.66 0.99 1.32 1.98 2 3 C0.89131683 5.21736634 -0.49440461 7.03617993 -2 9 C-2.125 5.625 -2.125 5.625 -2 2 C-1.34 1.34 -0.68 0.68 0 0 Z " fill="#6FA587" transform="translate(71,76)"/>
<path d="M0 0 C0.66 0 1.32 0 2 0 C2.66 1.65 3.32 3.3 4 5 C3.01 5.99 2.02 6.98 1 8 C0.26919734 6.02253397 -0.39421747 4.01927511 -1 2 C-0.67 1.34 -0.34 0.68 0 0 Z " fill="#9CCCC8" transform="translate(177,67)"/>
</svg>
